<svg version="1.2" xmlns="http://www.w3.org/2000/svg" viewBox="0 0 109 86" width="109" height="86"><defs><linearGradient id="P" gradientUnits="userSpaceOnUse"/><linearGradient id="g1" x1="19.4" y1="47.1" x2="98.7" y2="47.1" href="#P"><stop stop-color="#d294f7" stop-opacity="1"/><stop offset="1" stop-color="#d294f7" stop-opacity=".1"/></linearGradient><linearGradient id="g2" x1="34.7" y1="87.7" x2="78.8" y2="17.4" href="#P"><stop stop-color="#37b5ff"/><stop offset=".7" stop-color="#bd4df7"/></linearGradient><radialGradient id="g3" cx="83" cy="18.6" r="5.4" href="#P"><stop stop-color="#d294f7" stop-opacity=".4"/><stop offset=".97" stop-color="#fff" stop-opacity="0"/></radialGradient><linearGradient id="g4" x1="83" y1="16.5" x2="83" y2="20.6" href="#P"><stop stop-color="#905cff"/><stop offset=".99" stop-color="#ce51eb"/></linearGradient><linearGradient id="g5" x1="82.1" y1="20.9" x2="85.4" y2="17.5" href="#P"><stop stop-color="#905cff"/><stop offset=".99" stop-color="#ce51eb"/></linearGradient><radialGradient id="g6" cx="10.8" cy="54.9" r="8.3" href="#P"><stop stop-color="#d294f7" stop-opacity=".4"/><stop offset=".97" stop-color="#fff" stop-opacity="0"/></radialGradient><linearGradient id="g7" x1="10.8" y1="51.6" x2="10.8" y2="57.9" href="#P"><stop stop-color="#905cff"/><stop offset=".99" stop-color="#ce51eb"/></linearGradient><linearGradient id="g8" x1="9.4" y1="58.4" x2="14.5" y2="53.2" href="#P"><stop stop-color="#905cff"/><stop offset=".99" stop-color="#ce51eb"/></linearGradient><radialGradient id="g9" cx="3.7" cy="36.3" r="4.7" href="#P"><stop stop-color="#d294f7" stop-opacity=".4"/><stop offset=".97" stop-color="#fff" stop-opacity="0"/></radialGradient><linearGradient id="g10" x1="3.7" y1="34.5" x2="3.7" y2="38.1" href="#P"><stop stop-color="#905cff"/><stop offset=".99" stop-color="#ce51eb"/></linearGradient><linearGradient id="g11" x1="2.9" y1="38.4" x2="5.8" y2="35.4" href="#P"><stop stop-color="#905cff"/><stop offset=".99" stop-color="#ce51eb"/></linearGradient><radialGradient id="g12" cx="34.3" cy="5.9" r="6.4" href="#P"><stop stop-color="#d294f7" stop-opacity=".4"/><stop offset=".97" stop-color="#fff" stop-opacity="0"/></radialGradient><linearGradient id="g13" x1="34.3" y1="3.4" x2="34.3" y2="8.2" href="#P"><stop stop-color="#905cff"/><stop offset=".99" stop-color="#ce51eb"/></linearGradient><linearGradient id="g14" x1="33.1" y1="8.6" x2="37.1" y2="4.6" href="#P"><stop stop-color="#905cff"/><stop offset=".99" stop-color="#ce51eb"/></linearGradient><radialGradient id="g15" cx="19.4" cy="25.8" r="15.7" href="#P"><stop stop-color="#d294f7" stop-opacity=".4"/><stop offset=".97" stop-color="#fff" stop-opacity="0"/></radialGradient><linearGradient id="g16" x1="19.4" y1="19.6" x2="19.4" y2="31.5" href="#P"><stop stop-color="#905cff"/><stop offset=".99" stop-color="#ce51eb"/></linearGradient><linearGradient id="g17" x1="16.7" y1="32.5" x2="26.3" y2="22.6" href="#P"><stop stop-color="#905cff"/><stop offset=".99" stop-color="#ce51eb"/></linearGradient><radialGradient id="g18" cx="89.1" cy="62.2" r="3.2" href="#P"><stop stop-color="#d294f7" stop-opacity=".4"/><stop offset=".97" stop-color="#fff" stop-opacity="0"/></radialGradient><linearGradient id="g19" x1="88.3" y1="62.2" x2="89.9" y2="62.2" href="#P"><stop stop-color="#905cff"/><stop offset=".99" stop-color="#ce51eb"/></linearGradient><linearGradient id="g20" x1="88.5" y1="63.6" x2="90.5" y2="61.6" href="#P"><stop stop-color="#905cff"/><stop offset=".99" stop-color="#ce51eb"/></linearGradient></defs><style>.a{fill:none}.b{fill:url(#g1)}.c{fill:url(#g2)}.d{fill:url(#g3)}.e{fill:url(#g4)}.f{fill:url(#g5)}.g{fill:url(#g6)}.h{fill:url(#g7)}.i{fill:url(#g8)}.j{fill:url(#g9)}.k{fill:url(#g10)}.l{fill:url(#g11)}.m{fill:url(#g12)}.n{fill:url(#g13)}.o{fill:url(#g14)}.p{fill:url(#g15)}.q{fill:url(#g16)}.r{fill:url(#g17)}.s{fill:url(#g18)}.t{fill:url(#g19)}.u{fill:url(#g20)}.v{fill:#323544}</style><path class="a" d="m9.2 6.5h99.8v81.4h-99.8z"/><path fill-rule="evenodd" class="b" d="m43.5 16.6q-0.2 0.8-0.4 1.6c-5.8 0.5-10.5 1.9-10.5 1.9q-4.5 1.4-8.7 3.5-1.8 1-3.6 2.1-0.1-0.2-0.2-0.3-0.3-0.6-0.7-0.9c1-0.7 2.1-1.3 3.1-1.9 6.4-3.3 13.5-5.5 21-6zm54.4 61c0.5-3.2 3-23.1-11.1-40.4-7.2-8.9-16.2-13.8-24.1-16.4q-0.2-1-0.5-2c21.2 6.5 36.5 26.2 36.5 49.4q0 4.9-0.8 9.4zm-47.1-60.9q1.6 0.1 3.2 0.3-0.2 0.8-0.4 1.6-1.2-0.2-2.4-0.3-0.2-0.8-0.4-1.6z"/><path fill-rule="evenodd" class="c" d="m80.8 60.5q-0.8 0.7-1.6 1.3 0.8 9.4 1.6 18.7h-5.1v-5.9h-5l-0.6 1.4-0.1 0.3-0.2-0.5-0.6-1.2h-4.9v0.2q-0.4-0.2-0.8-0.3v-2.3l1.9-3.1 2.1-3.4h-6l-0.6 1.1-0.1 0.2q-0.2-0.2-0.4-0.4c-0.2-2.4-1.2-4.5-2.8-6.1-1.8-1.7-4.2-2.8-6.8-2.8-4.8 0-8.8 3.5-9.6 8h-5v4.8h0.8v4c-0.1 0-4.1 0-4.2 0q-1.1 0.1-1.9 0.7 0 0-0.1 0-0.1-0.1-0.3-0.2-0.8-0.4-1.8-0.5h-3.4v4.9h0.8v1h-5l1-20.6q-0.4 0-0.8-0.1-0.4-2.7-0.9-5.5 1-0.2 1.9-0.4 1.3-2.4 2.6-4.7c-0.4-0.1-0.7-0.4-0.8-0.7-0.3-0.7-0.1-1.4 0.6-1.7 0.6-0.3 1.4 0 1.7 0.6 0.3 0.6 0 1.4-0.7 1.7q1.1 2.4 2.2 4.7 0.9 0.2 1.8 0.4-0.1 1.8-0.1 3.5 0.4-0.1 0.9-0.1-0.1-2.1-0.1-4.2-0.3-0.1-0.6-0.2 1.6-2.3 3.2-4.7 0.3-3.3 0.5-6.6-0.4-2.2-0.8-4.3h-1q2.6-4.9 5.2-9.7v-2.7l-3.9-0.7 3.9-1.1 0.3-0.1v4.7q2.5 4.8 5 9.5h-1q-0.4 2.2-0.8 4.4 0.2 3.3 0.4 6.6h1.7v-4.2q-0.3-0.1-0.6-0.2 0.9-4.1 1.8-8.3c-0.3-0.2-0.5-0.5-0.5-0.9 0-0.5 0.4-0.9 0.8-0.9 0.5 0 0.9 0.4 0.9 0.9 0 0.3-0.2 0.6-0.5 0.8l1.1 3.4q0-5.2 0.1-10.3-0.5-0.9-0.9-1.9 0.4 0 0.9 0 0-1 0-2-0.5 0-1-0.1 1.3-6 2.5-12v-1.6l-3.9-0.8 3.9-1 0.3-0.1v3.5q1.4 5.9 2.9 11.8-0.4 0.1-0.8 0.2-0.1 1-0.1 2.1 0.5 0 0.9 0-0.4 1-0.9 2-0.1 2.5-0.1 4.9 1.2-3.9 2.4-7.7c-0.5-0.1-0.9-0.6-0.9-1.1 0-0.6 0.5-1.1 1.1-1.1 0.5 0 1 0.5 1 1.1 0 0.5-0.3 0.9-0.7 1q1 4.8 2.1 9.5h0.9q0.1-3.7 0.2-7.4-0.3 0-0.6 0-0.4-2.1-0.7-4.2 0.7-0.2 1.4-0.3 0-1 0-2-0.3 0-0.6-0.2 1.4-6.4 2.7-12.7v-0.9l-3.8-0.7 3.8-1 0.4-0.1v2.6q1.5 6.4 2.9 12.8l-0.5 0.1q0 0.1 0 0.1 0 1 0 2 0.7 0.1 1.4 0.2-0.4 2.1-0.7 4.3-0.3 0-0.6 0 0.2 8.4 0.5 16.9h1.7q0-1 0-2h-0.9q1.2-5.3 2.4-10.7c-0.4-0.1-0.7-0.3-0.8-0.7-0.2-0.5 0.1-1.1 0.6-1.3 0.6-0.2 1.2 0.1 1.4 0.6 0.2 0.6-0.1 1.2-0.7 1.4q1.4 5.3 2.8 10.7-0.5 0-1 0 0 1 0 2h2.8q1.8 3.8 3.6 7.5 0 0 0 0c0.1 0.1 0 0.1 0 0.1l-0.8 0.1q-0.1 0-0.1 0.1v2.4h1.8q1.2-3 2.3-5.9c-0.4-0.2-0.8-0.6-0.8-1.1 0-0.6 0.5-1.1 1.2-1.1 0.6 0 1.2 0.5 1.2 1.1 0 0.5-0.4 0.9-0.8 1q1.3 3 2.6 6h1.6c-0.1 1.8-0.2 3.6-0.3 5.4zm-54.3-4.6c0-0.3-0.1-0.6-0.3-0.8-0.2-0.2-0.4-0.3-0.7-0.3-0.6 0-1.1 0.5-1.1 1.1v1.4h2.1zm11.5-16.8c0-0.2-0.1-0.5-0.3-0.7-0.2-0.2-0.5-0.3-0.8-0.3-0.6 0-1.1 0.5-1.1 1.1v1.4h2.2zm10.2-13.4q0-0.4-0.2-0.6-0.2-0.2-0.5-0.2c-0.5 0-0.8 0.3-0.8 0.8v1h1.5zm4.9 27v-4.4c0-0.7-0.3-1.2-0.7-1.7-0.4-0.4-1-0.7-1.7-0.7-1.3 0-2.3 1.1-2.3 2.4v4.4zm6.1-27.1c0-0.4-0.2-0.7-0.4-0.9-0.2-0.3-0.6-0.4-0.9-0.4-0.7 0-1.3 0.6-1.3 1.3v1.7h2.6zm18.8 30.4c0-0.3-0.1-0.5-0.3-0.7-0.2-0.2-0.5-0.3-0.8-0.3-0.6 0-1.1 0.4-1.1 1v1.5h2.2z"/><path class="d" d="m83 24c3 0 5.4-2.4 5.4-5.4 0-3-2.4-5.4-5.4-5.4-3 0-5.4 2.4-5.4 5.4 0 3 2.4 5.4 5.4 5.4z"/><path class="e" d="m84.3 18.6c-0.1 0-0.5 0-0.9 0.6-0.4 0.6-0.4 1.3-0.4 1.4 0-0.1 0-0.7-0.3-1.3q0 0-0.1-0.1-0.1-0.2-0.3-0.3c-0.2-0.3-0.5-0.3-0.6-0.3 0.1 0 0.6 0 0.9-0.6 0.4-0.6 0.4-1.3 0.4-1.4 0 0.1 0 0.8 0.4 1.4q0.1 0.1 0.1 0.2c0.2 0.2 0.4 0.3 0.6 0.4q0.2 0 0.2 0z"/><path class="f" d="m84.3 18.6c-0.1 0-0.5 0-0.9 0.6-0.4 0.6-0.4 1.3-0.4 1.4 0-0.1 0-0.7-0.3-1.3q0 0-0.1-0.1-0.1-0.2-0.3-0.3c-0.2-0.3-0.5-0.3-0.6-0.3 0.1 0 0.6 0 0.9-0.6 0.4-0.6 0.4-1.3 0.4-1.4 0 0.1 0 0.8 0.4 1.4q0.1 0.1 0.1 0.2c0.2 0.2 0.4 0.3 0.6 0.4q0.2 0 0.2 0z"/><path class="g" d="m10.8 63.1c4.6 0 8.3-3.7 8.3-8.2 0-4.6-3.7-8.3-8.3-8.3-4.5 0-8.2 3.7-8.2 8.3 0 4.5 3.7 8.2 8.2 8.2z"/><path class="h" d="m12.8 54.9c-0.1 0-0.8 0-1.4 0.9-0.6 0.9-0.6 2-0.6 2.2 0-0.2 0-1.2-0.4-2q-0.1-0.1-0.2-0.2-0.2-0.3-0.4-0.5c-0.4-0.4-0.9-0.4-1-0.4 0.2 0 0.9-0.1 1.5-0.9 0.5-0.9 0.5-2 0.5-2.2 0 0.2 0.1 1.3 0.6 2.2q0.1 0.1 0.2 0.2c0.3 0.4 0.6 0.5 0.8 0.6 0.2 0.1 0.4 0.1 0.4 0.1z"/><path class="i" d="m12.8 54.9c-0.1 0-0.8 0-1.4 0.9-0.6 0.9-0.6 2-0.6 2.2 0-0.2 0-1.2-0.4-2q-0.1-0.1-0.2-0.2-0.2-0.3-0.4-0.5c-0.4-0.4-0.9-0.4-1-0.4 0.2 0 0.9-0.1 1.5-0.9 0.5-0.9 0.5-2 0.5-2.2 0 0.2 0.1 1.3 0.6 2.2q0.1 0.1 0.2 0.2c0.3 0.4 0.6 0.5 0.8 0.6 0.2 0.1 0.4 0.1 0.4 0.1z"/><path class="j" d="m3.7 41c2.6 0 4.7-2.1 4.7-4.7 0-2.5-2.1-4.6-4.7-4.6-2.6 0-4.7 2.1-4.7 4.6 0 2.6 2.1 4.7 4.7 4.7z"/><path class="k" d="m4.8 36.3c0 0-0.4 0.1-0.8 0.6-0.3 0.5-0.3 1.1-0.3 1.2 0-0.1 0-0.7-0.3-1.1q0-0.1 0-0.1-0.1-0.2-0.2-0.3c-0.3-0.2-0.6-0.2-0.6-0.2 0.1 0 0.5-0.1 0.8-0.6 0.3-0.5 0.3-1.1 0.3-1.2 0 0.1 0 0.7 0.3 1.2q0.1 0.1 0.2 0.2c0.1 0.2 0.3 0.3 0.4 0.3q0.2 0 0.2 0z"/><path class="l" d="m4.8 36.3c0 0-0.4 0.1-0.8 0.6-0.3 0.5-0.3 1.1-0.3 1.2 0-0.1 0-0.7-0.3-1.1q0-0.1 0-0.1-0.1-0.2-0.2-0.3c-0.3-0.2-0.6-0.2-0.6-0.2 0.1 0 0.5-0.1 0.8-0.6 0.3-0.5 0.3-1.1 0.3-1.2 0 0.1 0 0.7 0.3 1.2q0.1 0.1 0.2 0.2c0.1 0.2 0.3 0.3 0.4 0.3q0.2 0 0.2 0z"/><path class="m" d="m34.3 12.3c3.5 0 6.4-2.9 6.4-6.4 0-3.6-2.9-6.4-6.4-6.4-3.6 0-6.4 2.8-6.4 6.4 0 3.5 2.8 6.4 6.4 6.4z"/><path class="n" d="m35.8 5.9c-0.1 0-0.6 0-1.1 0.7-0.4 0.7-0.4 1.5-0.4 1.7 0-0.2-0.1-0.9-0.4-1.5q0-0.1-0.1-0.2-0.2-0.2-0.3-0.4c-0.4-0.3-0.7-0.3-0.8-0.3 0.1 0 0.6 0 1.1-0.7 0.4-0.7 0.4-1.6 0.4-1.7 0 0.1 0.1 1 0.5 1.7q0.1 0.1 0.2 0.2c0.2 0.3 0.4 0.4 0.6 0.4q0.2 0.1 0.3 0.1z"/><path class="o" d="m35.8 5.9c-0.1 0-0.6 0-1.1 0.7-0.4 0.7-0.4 1.5-0.4 1.7 0-0.2-0.1-0.9-0.4-1.5q0-0.1-0.1-0.2-0.2-0.2-0.3-0.4c-0.4-0.3-0.7-0.3-0.8-0.3 0.1 0 0.6 0 1.1-0.7 0.4-0.7 0.4-1.6 0.4-1.7 0 0.1 0.1 1 0.5 1.7q0.1 0.1 0.2 0.2c0.2 0.3 0.4 0.4 0.6 0.4q0.2 0.1 0.3 0.1z"/><path class="p" d="m19.4 41.4c8.7 0 15.7-7 15.7-15.7 0-8.6-7-15.6-15.7-15.6-8.7 0-15.7 7-15.7 15.6 0 8.7 7 15.7 15.7 15.7z"/><path class="q" d="m23.2 25.7c-0.3 0-1.6 0.1-2.7 1.8-1.1 1.7-1.1 3.7-1.1 4.2 0-0.4 0-2.2-0.9-3.8q-0.1-0.2-0.2-0.4-0.4-0.6-0.8-0.9c-0.9-0.8-1.7-0.8-1.9-0.8 0.3 0 1.6-0.1 2.7-1.8 1.1-1.7 1.1-3.7 1.1-4.1 0 0.4 0.1 2.4 1.1 4.1q0.2 0.3 0.4 0.6c0.6 0.6 1.2 0.9 1.6 1 0.3 0.1 0.6 0.1 0.7 0.1z"/><path class="r" d="m23.2 25.7c-0.3 0-1.6 0.1-2.7 1.8-1.1 1.7-1.1 3.7-1.1 4.2 0-0.4 0-2.2-0.9-3.8q-0.1-0.2-0.2-0.4-0.4-0.6-0.8-0.9c-0.9-0.8-1.7-0.8-1.9-0.8 0.3 0 1.6-0.1 2.7-1.8 1.1-1.7 1.1-3.7 1.1-4.1 0 0.4 0.1 2.4 1.1 4.1q0.2 0.3 0.4 0.6c0.6 0.6 1.2 0.9 1.6 1 0.3 0.1 0.6 0.1 0.7 0.1z"/><path class="s" d="m89.1 65.4c1.7 0 3.2-1.4 3.2-3.2 0-1.7-1.5-3.2-3.2-3.2-1.8 0-3.2 1.5-3.2 3.2 0 1.8 1.4 3.2 3.2 3.2z"/><path class="t" d="m89.9 62.2c-0.1 0-0.4 0-0.6 0.4-0.2 0.3-0.2 0.7-0.2 0.8 0-0.1 0-0.4-0.2-0.8q0 0 0 0-0.1-0.2-0.2-0.2c-0.2-0.2-0.3-0.2-0.4-0.2 0.1 0 0.4 0 0.6-0.3 0.2-0.4 0.2-0.8 0.2-0.9 0 0.1 0 0.5 0.2 0.9q0.1 0 0.1 0.1 0.2 0.2 0.3 0.2 0.1 0 0.2 0z"/><path class="u" d="m89.9 62.2c-0.1 0-0.4 0-0.6 0.4-0.2 0.3-0.2 0.7-0.2 0.8 0-0.1 0-0.4-0.2-0.8q0 0 0 0-0.1-0.2-0.2-0.2c-0.2-0.2-0.3-0.2-0.4-0.2 0.1 0 0.4 0 0.6-0.3 0.2-0.4 0.2-0.8 0.2-0.9 0 0.1 0 0.5 0.2 0.9q0.1 0 0.1 0.1 0.2 0.2 0.3 0.2 0.1 0 0.2 0z"/><path fill-rule="evenodd" class="v" d="m39.3 69.2q0-0.5-0.2-0.7-0.1-0.3-0.5-0.3h-0.1v-0.3h2.6q1.3 0 2.1 0.4 0.9 0.3 0.9 1.4 0 0.4-0.4 0.8-0.4 0.4-1 0.6 1.6 0.2 1.7 1.5 0 1.1-0.9 1.4-0.8 0.4-2.1 0.4h-2.1zm2 1.7q0.6 0 1-0.3 0.4-0.3 0.4-1 0-0.6-0.5-1-0.4-0.3-1.1-0.3-0.2 0-0.4 0.1h-0.2v2.5h0.8zm0 3.1q0.8 0 1.2-0.3 0.5-0.4 0.5-1-0.1-1.4-1.7-1.4h-0.8v2.6q0.2 0.1 0.2 0.1 0.3 0.1 0.5 0.1h0.1z"/><path fill-rule="evenodd" class="v" d="m49.7 74.2q-0.5-0.3-0.8-1l-0.3-0.6h-2.6l-0.8 1.8h-0.5l2.9-6.5h0.5l2.2 5.3q0.4 0.9 1 1v0.2q-0.2 0.1-0.5 0.1-0.6 0-1.1-0.3zm-3.5-2h2.3l-1.1-2.6z"/><path fill-rule="evenodd" class="v" d="m51.9 69.2q0-0.5-0.1-0.7-0.1-0.3-0.5-0.3h-0.1v-0.3h2.6q1.3 0 2.1 0.4 0.8 0.3 0.8 1.4 0 0.4-0.3 0.8-0.4 0.4-1 0.6 1.6 0.2 1.6 1.5 0 1.1-0.8 1.4-0.8 0.4-2.1 0.4h-2.2zm2.1 1.7q0.6 0 1-0.3 0.4-0.3 0.4-1-0.1-0.6-0.5-1-0.4-0.3-1.1-0.3-0.2 0-0.4 0.1h-0.2v2.5h0.8zm0 3.1q0.8 0 1.2-0.3 0.5-0.4 0.4-1 0-1.4-1.6-1.4h-0.8v2.6q0.2 0.1 0.2 0.1 0.2 0.1 0.5 0.1h0.1z"/><path class="v" d="m59.9 71.8l-1.7-2.6q-0.3-0.4-0.7-0.7-0.3-0.3-0.6-0.4v-0.2h1.1q0.5 0 0.9 0.4 0.4 0.3 0.7 0.7l1.3 2 1.9-3.1h0.7l-2.3 3.7v2.9h-1.3z"/><path class="v" d="m32.5 83.1q-0.6-0.2-1.3-0.9l-1.6-1.6v2.7h-1.2l-0.1-5.2q0-0.5-0.1-0.8-0.1-0.2-0.5-0.2h-0.1v-0.3h1.1q0.4 0 0.6 0.1 0.2 0.1 0.3 0.4 0 0.3 0 0.8v1.9l1.7-2.2q0.4-0.4 0.8-0.7 0.4-0.3 1-0.3h0.7v0.4q-0.6 0-1.1 0.1-0.4 0.2-0.7 0.6l-1.5 1.8 2.3 2.3q0.4 0.5 0.8 0.7 0.5 0.3 0.7 0.4v0.2q-0.3 0.1-0.7 0.1-0.6 0-1.1-0.3z"/><path class="v" d="m35.4 83.2q-0.2-0.2-0.3-0.4-0.1-0.3-0.1-0.8v-5.2h1.3v5.2q0 0.5 0.2 0.7 0.1 0.3 0.5 0.3h0.1v0.3h-1.2q-0.3 0-0.5-0.1z"/><path class="v" d="m38.7 78.4v4.9h-0.5v-5.3q0-0.4-0.2-0.7-0.2-0.2-0.6-0.2h-0.1v-0.3h0.7q0.5 0 0.9 0.1 0.4 0.2 0.6 0.5l3.4 3.9v-4.5h0.5v6.5h-0.5z"/><path class="v" d="m46.2 83q-0.8-0.4-1.3-1.3-0.5-0.8-0.5-1.8 0-0.9 0.4-1.7 0.4-0.7 1.2-1.2 0.7-0.4 1.7-0.4 0.9 0 1.5 0.2 0.6 0.2 0.9 0.6 0.1 0.2 0.2 0.5 0 0.4 0 0.9h-0.3q-0.1-0.9-0.6-1.4-0.5-0.4-1.4-0.4-1.1 0-1.6 0.9-0.6 0.8-0.6 2 0 1.7 0.6 2.5 0.6 0.7 1.6 0.7 0.8 0 1.4-0.3v-1.7q0-0.5 0.3-0.9 0.5-0.3 1.6-0.3v0.2q-0.7 0-0.7 0.9v1.8q-0.5 0.4-1.2 0.5-0.6 0.2-1.4 0.2-1 0-1.8-0.5z"/><path fill-rule="evenodd" class="v" d="m52.3 78.1q0-0.5-0.2-0.8-0.1-0.2-0.5-0.2h-0.1v-0.3h2.7q2 0 3 0.8 1 0.9 1 2.4 0 1-0.4 1.7-0.4 0.8-1.3 1.2-0.9 0.4-2.1 0.4h-2.1zm2.1 4.8q0.7 0 1.2-0.3 0.5-0.4 0.8-1 0.3-0.6 0.4-1.5 0-0.9-0.4-1.5-0.3-0.7-0.8-1-0.5-0.4-1.2-0.4h-0.1q-0.3 0-0.5 0.1h-0.3v5.6h0.3q0.2 0 0.5 0z"/><path fill-rule="evenodd" class="v" d="m60.5 83q-0.7-0.4-1.1-1.2-0.4-0.8-0.4-1.8c0-0.6 0.1-1.2 0.4-1.7q0.4-0.8 1.1-1.3 0.8-0.4 1.7-0.4 1 0 1.7 0.4 0.7 0.5 1.2 1.3 0.4 0.7 0.4 1.7c0 0.7-0.2 1.3-0.4 1.8q-0.5 0.8-1.2 1.2c-0.5 0.3-1.1 0.5-1.7 0.5q-0.9 0-1.7-0.5zm3.1-0.7q0.5-0.8 0.5-2.3 0-1.4-0.5-2.2-0.5-0.8-1.4-0.8-0.9 0-1.4 0.8-0.5 0.8-0.5 2.2 0 1.5 0.5 2.3 0.5 0.7 1.4 0.7 0.9 0 1.4-0.7z"/><path class="v" d="m72.7 83.2q-0.5-0.5-0.5-1.6v-3.5l-2.2 5.2h-0.3l-2.6-5.4v5.4h-0.5v-6.5h1.2l2.4 4.8 2-4.8h1.3v4.8q0 0.9 0.1 1.4 0.2 0.4 0.6 0.5v0.2q-1.1 0-1.5-0.5z"/></svg>