<svg width="247" height="64" viewBox="0 0 247 64" fill="none" xmlns="http://www.w3.org/2000/svg">
<path d="M63.428 53.1C63.428 53.912 63.6007 54.64 63.946 55.284C64.3007 55.928 64.7813 56.4367 65.388 56.81C66.004 57.174 66.704 57.356 67.488 57.356C68.272 57.356 68.9673 57.174 69.574 56.81C70.19 56.4367 70.6707 55.928 71.016 55.284C71.3613 54.64 71.534 53.912 71.534 53.1C71.534 52.2787 71.3613 51.5507 71.016 50.916C70.6707 50.272 70.19 49.768 69.574 49.404C68.9673 49.0307 68.272 48.844 67.488 48.844C66.704 48.844 66.004 49.0307 65.388 49.404C64.7813 49.768 64.3007 50.272 63.946 50.916C63.6007 51.5507 63.428 52.2787 63.428 53.1ZM62.616 53.1C62.616 52.3813 62.7373 51.7187 62.98 51.112C63.2227 50.496 63.5633 49.964 64.002 49.516C64.4407 49.0587 64.954 48.704 65.542 48.452C66.1393 48.2 66.788 48.074 67.488 48.074C68.188 48.074 68.832 48.2 69.42 48.452C70.0173 48.704 70.5353 49.0587 70.974 49.516C71.4127 49.964 71.7533 50.496 71.996 51.112C72.2387 51.7187 72.36 52.3813 72.36 53.1C72.36 53.8187 72.2387 54.486 71.996 55.102C71.7533 55.7087 71.4127 56.2407 70.974 56.698C70.5353 57.146 70.0173 57.496 69.42 57.748C68.832 58 68.188 58.126 67.488 58.126C66.788 58.126 66.1393 58 65.542 57.748C64.954 57.496 64.4407 57.146 64.002 56.698C63.5633 56.2407 63.2227 55.7087 62.98 55.102C62.7373 54.486 62.616 53.8187 62.616 53.1ZM85.1025 48.2H85.8725V58.378L78.4245 49.824V58H77.6545V47.822L85.1025 56.404V48.2ZM91.7229 48.2H92.4929V57.272H96.5389V58H91.7229V48.2ZM101.388 48.2H102.158V58H101.388V48.2ZM115.427 48.2H116.197V58.378L108.749 49.824V58H107.979V47.822L115.427 56.404V48.2ZM122.453 58V57.272H127.311V58H122.453ZM122.453 48.928V48.2H127.311V48.928H122.453ZM122.453 52.988V52.26H127.031V52.988H122.453ZM122.047 48.2H122.817V58H122.047V48.2ZM140.793 55.172C140.952 55.5827 141.143 55.956 141.367 56.292C141.6 56.628 141.885 56.8987 142.221 57.104C142.557 57.3 142.958 57.398 143.425 57.398C144.06 57.398 144.554 57.2253 144.909 56.88C145.273 56.5253 145.455 56.0773 145.455 55.536C145.455 55.06 145.348 54.6773 145.133 54.388C144.918 54.0987 144.638 53.8653 144.293 53.688C143.957 53.5013 143.602 53.338 143.229 53.198C142.949 53.0953 142.655 52.974 142.347 52.834C142.048 52.6847 141.768 52.5073 141.507 52.302C141.246 52.0873 141.031 51.8307 140.863 51.532C140.704 51.2333 140.625 50.874 140.625 50.454C140.625 49.9873 140.737 49.5767 140.961 49.222C141.185 48.858 141.498 48.578 141.899 48.382C142.3 48.1767 142.753 48.074 143.257 48.074C143.78 48.074 144.228 48.172 144.601 48.368C144.984 48.564 145.301 48.8113 145.553 49.11C145.805 49.4087 145.996 49.7167 146.127 50.034L145.455 50.412C145.352 50.16 145.203 49.9127 145.007 49.67C144.82 49.4273 144.582 49.2267 144.293 49.068C144.004 48.9 143.644 48.816 143.215 48.816C142.646 48.816 142.207 48.9653 141.899 49.264C141.591 49.5533 141.437 49.9173 141.437 50.356C141.437 50.72 141.526 51.0327 141.703 51.294C141.88 51.5553 142.146 51.7933 142.501 52.008C142.856 52.2133 143.294 52.4093 143.817 52.596C144.088 52.6987 144.368 52.8247 144.657 52.974C144.946 53.1233 145.208 53.31 145.441 53.534C145.684 53.758 145.88 54.0287 146.029 54.346C146.178 54.654 146.253 55.0227 146.253 55.452C146.253 55.8533 146.178 56.2173 146.029 56.544C145.889 56.8707 145.688 57.1553 145.427 57.398C145.175 57.6313 144.876 57.8133 144.531 57.944C144.186 58.0653 143.812 58.126 143.411 58.126C142.842 58.126 142.342 58.0093 141.913 57.776C141.484 57.5427 141.124 57.23 140.835 56.838C140.546 56.446 140.322 56.0213 140.163 55.564L140.793 55.172ZM151.971 53.03V52.302H158.579V53.03H151.971ZM158.061 48.2H158.845V58H158.061V48.2ZM151.565 48.2H152.335V58H151.565V48.2ZM164.955 53.1C164.955 53.912 165.128 54.64 165.473 55.284C165.828 55.928 166.309 56.4367 166.915 56.81C167.531 57.174 168.231 57.356 169.015 57.356C169.799 57.356 170.495 57.174 171.101 56.81C171.717 56.4367 172.198 55.928 172.543 55.284C172.889 54.64 173.061 53.912 173.061 53.1C173.061 52.2787 172.889 51.5507 172.543 50.916C172.198 50.272 171.717 49.768 171.101 49.404C170.495 49.0307 169.799 48.844 169.015 48.844C168.231 48.844 167.531 49.0307 166.915 49.404C166.309 49.768 165.828 50.272 165.473 50.916C165.128 51.5507 164.955 52.2787 164.955 53.1ZM164.143 53.1C164.143 52.3813 164.265 51.7187 164.507 51.112C164.75 50.496 165.091 49.964 165.529 49.516C165.968 49.0587 166.481 48.704 167.069 48.452C167.667 48.2 168.315 48.074 169.015 48.074C169.715 48.074 170.359 48.2 170.947 48.452C171.545 48.704 172.063 49.0587 172.501 49.516C172.94 49.964 173.281 50.496 173.523 51.112C173.766 51.7187 173.887 52.3813 173.887 53.1C173.887 53.8187 173.766 54.486 173.523 55.102C173.281 55.7087 172.94 56.2407 172.501 56.698C172.063 57.146 171.545 57.496 170.947 57.748C170.359 58 169.715 58.126 169.015 58.126C168.315 58.126 167.667 58 167.069 57.748C166.481 57.496 165.968 57.146 165.529 56.698C165.091 56.2407 164.75 55.7087 164.507 55.102C164.265 54.486 164.143 53.8187 164.143 53.1ZM179.182 48.2H179.952V58H179.182V48.2ZM179.616 48.928V48.2H181.478C182.094 48.2 182.64 48.3167 183.116 48.55C183.601 48.7833 183.984 49.1147 184.264 49.544C184.544 49.9733 184.684 50.4913 184.684 51.098C184.684 51.6953 184.544 52.2133 184.264 52.652C183.984 53.0907 183.601 53.4267 183.116 53.66C182.64 53.884 182.094 53.996 181.478 53.996H179.616V53.268H181.478C182.197 53.268 182.78 53.0813 183.228 52.708C183.676 52.3347 183.9 51.798 183.9 51.098C183.9 50.3887 183.676 49.852 183.228 49.488C182.78 49.1147 182.197 48.928 181.478 48.928H179.616Z" fill="#BB8C5F"/>
<path d="M27.1132 39L30 41.8868L32.8868 39L30 36.1132L27.1132 39ZM218.887 39L216 36.1132L213.113 39L216 41.8867L218.887 39ZM30 39.5L216 39.5L216 38.5L30 38.5L30 39.5Z" fill="#BB8C5F"/>
<path d="M36.4196 28.7H36.5696C36.7096 28.7 36.8396 28.65 36.9596 28.55C37.0796 28.43 37.1796 28.29 37.2596 28.13C37.3596 27.95 37.4296 27.77 37.4696 27.59C37.5096 27.39 37.5296 27.21 37.5296 27.05V18.89H27.9296V27.05C27.9296 27.21 27.9496 27.39 27.9896 27.59C28.0296 27.77 28.0896 27.94 28.1696 28.1C28.2496 28.26 28.3396 28.4 28.4396 28.52C28.5596 28.64 28.6996 28.7 28.8596 28.7H29.0096V29H24.8096V28.7H24.9596C25.0996 28.7 25.2296 28.65 25.3496 28.55C25.4696 28.43 25.5696 28.29 25.6496 28.13C25.7496 27.95 25.8196 27.77 25.8596 27.59C25.8996 27.39 25.9196 27.21 25.9196 27.05V11.06C25.9196 10.92 25.8996 10.76 25.8596 10.58C25.8196 10.4 25.7596 10.23 25.6796 10.07C25.5996 9.91 25.4996 9.78 25.3796 9.68C25.2596 9.56 25.1196 9.5 24.9596 9.5H24.8096V9.2H29.0096V9.5H28.8596C28.6996 9.5 28.5596 9.56 28.4396 9.68C28.3196 9.78 28.2196 9.91 28.1396 10.07C28.0796 10.23 28.0296 10.4 27.9896 10.58C27.9496 10.76 27.9296 10.92 27.9296 11.06V17.84H37.5296V11.06C37.5296 10.92 37.5096 10.76 37.4696 10.58C37.4296 10.4 37.3696 10.23 37.2896 10.07C37.2096 9.91 37.1096 9.78 36.9896 9.68C36.8696 9.56 36.7296 9.5 36.5696 9.5H36.4196V9.2H40.6196V9.5H40.4696C40.3096 9.5 40.1696 9.56 40.0496 9.68C39.9296 9.78 39.8296 9.91 39.7496 10.07C39.6896 10.23 39.6396 10.4 39.5996 10.58C39.5596 10.76 39.5396 10.92 39.5396 11.06V27.05C39.5396 27.21 39.5596 27.39 39.5996 27.59C39.6596 27.77 39.7296 27.94 39.8096 28.1C39.8896 28.26 39.9796 28.4 40.0796 28.52C40.1996 28.64 40.3296 28.7 40.4696 28.7H40.6196V29H36.4196V28.7ZM53.2217 8.9C54.7817 8.9 56.1817 9.18 57.4217 9.74C58.6617 10.28 59.7117 11.02 60.5717 11.96C61.4517 12.88 62.1217 13.96 62.5817 15.2C63.0617 16.42 63.3017 17.7 63.3017 19.04C63.3017 20.54 63.0217 21.92 62.4617 23.18C61.9217 24.44 61.1717 25.52 60.2117 26.42C59.2517 27.32 58.1317 28.03 56.8517 28.55C55.5917 29.05 54.2417 29.3 52.8017 29.3C51.2617 29.3 49.8717 29.02 48.6317 28.46C47.4117 27.9 46.3717 27.16 45.5117 26.24C44.6717 25.32 44.0217 24.26 43.5617 23.06C43.1017 21.86 42.8717 20.61 42.8717 19.31C42.8717 18.03 43.1017 16.77 43.5617 15.53C44.0217 14.27 44.6917 13.15 45.5717 12.17C46.4717 11.19 47.5617 10.4 48.8417 9.8C50.1217 9.2 51.5817 8.9 53.2217 8.9ZM53.1917 28.25C54.5317 28.19 55.7017 27.89 56.7017 27.35C57.7217 26.79 58.5717 26.09 59.2517 25.25C59.9317 24.39 60.4317 23.45 60.7517 22.43C61.0917 21.41 61.2617 20.4 61.2617 19.4C61.2617 18.3 61.0617 17.19 60.6617 16.07C60.2617 14.95 59.6917 13.94 58.9517 13.04C58.2117 12.12 57.3217 11.38 56.2817 10.82C55.2617 10.24 54.1117 9.95 52.8317 9.95C51.5917 9.95 50.4817 10.23 49.5017 10.79C48.5217 11.33 47.6817 12.03 46.9817 12.89C46.3017 13.75 45.7817 14.71 45.4217 15.77C45.0617 16.83 44.8817 17.87 44.8817 18.89C44.8817 19.99 45.0917 21.1 45.5117 22.22C45.9317 23.32 46.5117 24.32 47.2517 25.22C47.9917 26.12 48.8617 26.85 49.8617 27.41C50.8817 27.97 51.9917 28.25 53.1917 28.25ZM82.074 28.7H82.224C82.364 28.7 82.494 28.64 82.614 28.52C82.734 28.4 82.834 28.26 82.914 28.1C83.014 27.94 83.084 27.77 83.124 27.59C83.164 27.39 83.184 27.21 83.184 27.05V11.27L75.444 29.33L68.094 12.2V27.05C68.094 27.21 68.114 27.39 68.154 27.59C68.194 27.77 68.254 27.94 68.334 28.1C68.434 28.26 68.544 28.4 68.664 28.52C68.784 28.64 68.924 28.7 69.084 28.7H69.234V29H65.964V28.7H66.114C66.254 28.7 66.384 28.64 66.504 28.52C66.624 28.4 66.724 28.26 66.804 28.1C66.884 27.94 66.944 27.77 66.984 27.59C67.024 27.39 67.044 27.21 67.044 27.05V11.06C67.044 10.92 67.024 10.76 66.984 10.58C66.944 10.4 66.884 10.23 66.804 10.07C66.724 9.91 66.624 9.78 66.504 9.68C66.384 9.56 66.254 9.5 66.114 9.5H65.964V9.2H69.024L75.984 25.61L82.944 9.2H86.334V9.5H86.184C86.024 9.5 85.884 9.56 85.764 9.68C85.644 9.78 85.534 9.91 85.434 10.07C85.354 10.23 85.294 10.4 85.254 10.58C85.214 10.76 85.194 10.92 85.194 11.06V27.05C85.194 27.21 85.214 27.39 85.254 27.59C85.294 27.77 85.354 27.94 85.434 28.1C85.534 28.26 85.644 28.4 85.764 28.52C85.884 28.64 86.024 28.7 86.184 28.7H86.334V29H82.074V28.7ZM89.2543 28.7H89.4043C89.5643 28.7 89.7043 28.65 89.8243 28.55C89.9443 28.43 90.0443 28.29 90.1243 28.13C90.2243 27.97 90.2943 27.8 90.3343 27.62C90.3943 27.44 90.4243 27.27 90.4243 27.11V11.06C90.4243 10.92 90.3943 10.76 90.3343 10.58C90.2943 10.4 90.2243 10.23 90.1243 10.07C90.0443 9.91 89.9443 9.78 89.8243 9.68C89.7043 9.56 89.5643 9.5 89.4043 9.5H89.2543V9.2H100.804V11.99H100.504C100.464 11.53 100.284 11.13 99.9643 10.79C99.6443 10.43 99.1443 10.25 98.4643 10.25H92.4343V17.84H97.4143C97.8743 17.84 98.2543 17.7 98.5543 17.42C98.8743 17.14 99.0343 16.81 99.0343 16.43H99.3343V20.18H99.0343C99.0343 19.82 98.8843 19.51 98.5843 19.25C98.2843 18.99 97.8943 18.86 97.4143 18.86H92.4343V27.95H99.0043C99.3843 27.95 99.7143 27.86 99.9943 27.68C100.274 27.5 100.504 27.29 100.684 27.05C100.884 26.79 101.024 26.52 101.104 26.24C101.204 25.94 101.254 25.69 101.254 25.49H101.554V29H89.2543V28.7ZM123.068 28.7H123.218C123.698 28.7 123.938 28.48 123.938 28.04C123.938 27.88 123.908 27.71 123.848 27.53L121.148 20.24H115.898L113.288 27.41C113.228 27.57 113.198 27.72 113.198 27.86C113.198 28.12 113.268 28.33 113.408 28.49C113.548 28.63 113.698 28.7 113.858 28.7H114.008V29H110.678V28.7H110.828C111.088 28.7 111.338 28.55 111.578 28.25C111.838 27.93 112.048 27.56 112.208 27.14L119.078 8.84L125.798 26.96C125.938 27.36 126.128 27.75 126.368 28.13C126.628 28.51 126.958 28.7 127.358 28.7H127.508V29H123.068V28.7ZM116.198 19.22H120.818L118.508 12.95L116.198 19.22ZM133.383 28.7H133.533V29H129.303V28.7H129.453C129.593 28.7 129.723 28.64 129.843 28.52C129.963 28.4 130.063 28.26 130.143 28.1C130.243 27.94 130.313 27.77 130.353 27.59C130.393 27.39 130.413 27.21 130.413 27.05V11.06C130.413 10.92 130.393 10.76 130.353 10.58C130.313 10.4 130.243 10.23 130.143 10.07C130.063 9.91 129.963 9.78 129.843 9.68C129.723 9.56 129.593 9.5 129.453 9.5H129.303V9.2H134.523C136.523 9.2 138.063 9.59 139.143 10.37C140.243 11.15 140.793 12.3 140.793 13.82C140.793 14.58 140.663 15.25 140.403 15.83C140.163 16.39 139.833 16.88 139.413 17.3C138.993 17.7 138.493 18.03 137.913 18.29C137.353 18.53 136.753 18.71 136.113 18.83L138.273 22.13C138.793 22.93 139.323 23.72 139.863 24.5C140.403 25.26 140.933 26.05 141.453 26.87C141.593 27.07 141.743 27.28 141.903 27.5C142.083 27.72 142.263 27.92 142.443 28.1C142.643 28.28 142.843 28.43 143.043 28.55C143.263 28.65 143.483 28.7 143.703 28.7V29H142.413C141.613 29 140.953 28.81 140.433 28.43C139.933 28.03 139.513 27.57 139.173 27.05C138.273 25.73 137.373 24.39 136.473 23.03C135.593 21.67 134.713 20.33 133.833 19.01C133.613 18.99 133.373 18.97 133.113 18.95C132.873 18.91 132.643 18.87 132.423 18.83V27.05C132.423 27.21 132.443 27.39 132.483 27.59C132.523 27.77 132.583 27.94 132.663 28.1C132.763 28.26 132.863 28.4 132.963 28.52C133.083 28.64 133.223 28.7 133.383 28.7ZM132.423 10.22V17.84H132.573C132.733 17.86 132.983 17.88 133.323 17.9C133.683 17.9 134.123 17.9 134.643 17.9C135.063 17.9 135.503 17.84 135.963 17.72C136.443 17.58 136.883 17.36 137.283 17.06C137.703 16.74 138.043 16.33 138.303 15.83C138.583 15.33 138.723 14.7 138.723 13.94C138.723 13.18 138.573 12.56 138.273 12.08C137.993 11.6 137.593 11.22 137.073 10.94C136.573 10.66 135.963 10.47 135.243 10.37C134.523 10.27 133.733 10.22 132.873 10.22H132.423ZM157.654 23.69C157.654 24.69 157.454 25.55 157.054 26.27C156.654 26.97 156.134 27.54 155.494 27.98C154.874 28.42 154.164 28.74 153.364 28.94C152.584 29.14 151.804 29.24 151.024 29.24C150.224 29.24 149.534 29.16 148.954 29C148.374 28.84 147.844 28.69 147.364 28.55C147.044 28.45 146.754 28.37 146.494 28.31C146.234 28.23 145.974 28.19 145.714 28.19V24.77H146.014C146.014 25.53 146.204 26.14 146.584 26.6C146.984 27.04 147.444 27.38 147.964 27.62C148.484 27.86 149.004 28.02 149.524 28.1C150.044 28.16 150.424 28.19 150.664 28.19C151.524 28.19 152.264 28.07 152.884 27.83C153.504 27.57 154.014 27.24 154.414 26.84C154.814 26.42 155.104 25.96 155.284 25.46C155.484 24.96 155.584 24.45 155.584 23.93C155.584 23.27 155.444 22.72 155.164 22.28C154.884 21.82 154.514 21.42 154.054 21.08C153.614 20.74 153.104 20.45 152.524 20.21C151.944 19.97 151.354 19.73 150.754 19.49C150.074 19.23 149.404 18.96 148.744 18.68C148.084 18.4 147.494 18.06 146.974 17.66C146.454 17.24 146.034 16.75 145.714 16.19C145.394 15.61 145.234 14.9 145.234 14.06C145.234 13.18 145.404 12.42 145.744 11.78C146.084 11.12 146.534 10.58 147.094 10.16C147.674 9.74 148.324 9.43 149.044 9.23C149.784 9.01 150.534 8.9 151.294 8.9C151.814 8.9 152.304 8.94 152.764 9.02C153.224 9.08 153.664 9.16 154.084 9.26C154.424 9.34 154.754 9.41 155.074 9.47C155.394 9.51 155.704 9.53 156.004 9.53V12.62H155.704C155.664 11.58 155.254 10.88 154.474 10.52C153.694 10.14 152.614 9.95 151.234 9.95C150.434 9.95 149.774 10.09 149.254 10.37C148.754 10.63 148.354 10.96 148.054 11.36C147.754 11.74 147.544 12.16 147.424 12.62C147.324 13.06 147.274 13.45 147.274 13.79C147.274 14.35 147.394 14.83 147.634 15.23C147.894 15.63 148.234 15.98 148.654 16.28C149.074 16.58 149.554 16.85 150.094 17.09C150.654 17.33 151.234 17.56 151.834 17.78C152.514 18.04 153.204 18.32 153.904 18.62C154.604 18.92 155.224 19.29 155.764 19.73C156.324 20.17 156.774 20.71 157.114 21.35C157.474 21.99 157.654 22.77 157.654 23.69ZM160.211 28.7H160.361C160.521 28.7 160.661 28.65 160.781 28.55C160.901 28.43 161.001 28.29 161.081 28.13C161.181 27.97 161.251 27.8 161.291 27.62C161.351 27.44 161.381 27.27 161.381 27.11V11.06C161.381 10.92 161.351 10.76 161.291 10.58C161.251 10.4 161.181 10.23 161.081 10.07C161.001 9.91 160.901 9.78 160.781 9.68C160.661 9.56 160.521 9.5 160.361 9.5H160.211V9.2H171.761V11.99H171.461C171.421 11.53 171.241 11.13 170.921 10.79C170.601 10.43 170.101 10.25 169.421 10.25H163.391V17.84H168.371C168.831 17.84 169.211 17.7 169.511 17.42C169.831 17.14 169.991 16.81 169.991 16.43H170.291V20.18H169.991C169.991 19.82 169.841 19.51 169.541 19.25C169.241 18.99 168.851 18.86 168.371 18.86H163.391V27.95H169.961C170.341 27.95 170.671 27.86 170.951 27.68C171.231 27.5 171.461 27.29 171.641 27.05C171.841 26.79 171.981 26.52 172.061 26.24C172.161 25.94 172.211 25.69 172.211 25.49H172.511V29H160.211V28.7ZM177.922 28.7H178.072V29H174.742V28.7H174.892C175.032 28.7 175.162 28.64 175.282 28.52C175.422 28.4 175.532 28.26 175.612 28.1C175.692 27.94 175.752 27.77 175.792 27.59C175.852 27.39 175.882 27.21 175.882 27.05V11.06C175.882 10.92 175.862 10.76 175.822 10.58C175.802 10.4 175.752 10.23 175.672 10.07C175.592 9.91 175.482 9.78 175.342 9.68C175.202 9.56 175.032 9.5 174.832 9.5H174.682V9.2H177.712L188.602 26.36V11.06C188.602 10.92 188.572 10.76 188.512 10.58C188.472 10.4 188.402 10.23 188.302 10.07C188.222 9.91 188.122 9.78 188.002 9.68C187.882 9.56 187.742 9.5 187.582 9.5H187.432V9.2H190.792V9.5H190.642C190.482 9.5 190.342 9.56 190.222 9.68C190.102 9.78 189.992 9.91 189.892 10.07C189.812 10.23 189.752 10.4 189.712 10.58C189.672 10.76 189.652 10.92 189.652 11.06V29H187.792L176.932 11.78V27.05C176.932 27.21 176.952 27.39 176.992 27.59C177.032 27.77 177.092 27.94 177.172 28.1C177.272 28.26 177.382 28.4 177.502 28.52C177.622 28.64 177.762 28.7 177.922 28.7ZM205.07 28.7H205.22C205.7 28.7 205.94 28.48 205.94 28.04C205.94 27.88 205.91 27.71 205.85 27.53L203.15 20.24H197.9L195.29 27.41C195.23 27.57 195.2 27.72 195.2 27.86C195.2 28.12 195.27 28.33 195.41 28.49C195.55 28.63 195.7 28.7 195.86 28.7H196.01V29H192.68V28.7H192.83C193.09 28.7 193.34 28.55 193.58 28.25C193.84 27.93 194.05 27.56 194.21 27.14L201.08 8.84L207.8 26.96C207.94 27.36 208.13 27.75 208.37 28.13C208.63 28.51 208.96 28.7 209.36 28.7H209.51V29H205.07V28.7ZM198.2 19.22H202.82L200.51 12.95L198.2 19.22ZM211.305 28.7H211.455C211.615 28.7 211.755 28.65 211.875 28.55C211.995 28.43 212.095 28.29 212.175 28.13C212.275 27.97 212.345 27.8 212.385 27.62C212.445 27.44 212.475 27.27 212.475 27.11V11.06C212.475 10.92 212.445 10.76 212.385 10.58C212.345 10.4 212.275 10.23 212.175 10.07C212.095 9.91 211.995 9.78 211.875 9.68C211.755 9.56 211.615 9.5 211.455 9.5H211.305V9.2H215.625V9.5H215.475C215.315 9.5 215.175 9.56 215.055 9.68C214.935 9.78 214.835 9.91 214.755 10.07C214.675 10.23 214.605 10.4 214.545 10.58C214.505 10.76 214.485 10.92 214.485 11.06V27.89H221.055C221.435 27.89 221.765 27.8 222.045 27.62C222.325 27.44 222.555 27.22 222.735 26.96C222.935 26.68 223.075 26.39 223.155 26.09C223.255 25.77 223.305 25.48 223.305 25.22H223.605V29H211.305V28.7Z" fill="#BB8C5F"/>
</svg>
