<svg width="44" height="43" viewBox="0 0 44 43" fill="none" xmlns="http://www.w3.org/2000/svg">
<g id="Frame" clip-path="url(#clip0_10_11886)">
<g id="Group">
<path id="Vector" d="M36.8663 9.54162H30.6372V5.64945C30.6372 3.89175 29.1926 2.46191 27.4169 2.46191H16.5831C14.8075 2.46191 13.3629 3.89191 13.3629 5.64945V9.54162H7.13374C3.4759 9.54162 0.5 12.5175 0.5 16.1754V35.1194C0.5 38.1073 2.93075 40.5381 5.91866 40.5381H38.0813C41.0692 40.5381 43.5 38.1073 43.5 35.1194V16.1754C43.4999 12.5175 40.524 9.54162 36.8663 9.54162ZM15.89 5.64945C15.89 5.27295 16.188 4.98908 16.5831 4.98908H27.4169C27.812 4.98908 28.11 5.27295 28.11 5.64945V9.54162H15.89V5.64945ZM40.9727 35.1194C40.9727 36.7138 39.6757 38.0109 38.0813 38.0109H5.91866C4.32422 38.0109 3.02717 36.7138 3.02717 35.1194V23.3165C3.43039 23.5696 3.86496 23.769 4.31985 23.9095C4.34404 23.9169 4.3684 23.9237 4.39292 23.9297L17.2662 27.0758V28.1151C17.2662 29.7467 18.5936 31.0742 20.2253 31.0742H23.7746C25.4063 31.0742 26.7337 29.7467 26.7337 28.1151V27.0758L39.607 23.9297C39.6316 23.9237 39.656 23.917 39.6801 23.9095C40.1349 23.7689 40.5695 23.5696 40.9727 23.3165V35.1194H40.9727ZM19.7934 28.1151V24.5498C19.7936 24.4352 19.8391 24.3255 19.9201 24.2445C20.0011 24.1635 20.1109 24.118 20.2254 24.1178H23.7747C23.8892 24.1179 23.999 24.1635 24.08 24.2445C24.161 24.3254 24.2065 24.4352 24.2066 24.5498V28.1151C24.2065 28.2296 24.161 28.3394 24.08 28.4203C23.999 28.5013 23.8892 28.5469 23.7747 28.547H20.2254C20.1109 28.5468 20.0011 28.5013 19.9201 28.4203C19.8392 28.3393 19.7936 28.2296 19.7934 28.1151ZM40.9728 18.7218C40.9728 19.9922 40.1683 21.098 38.967 21.4845L26.732 24.4746C26.6919 22.8776 25.3812 21.5905 23.7747 21.5905H20.2254C18.6189 21.5905 17.3083 22.8776 17.2681 24.4746L5.03296 21.4846C3.83174 21.098 3.02717 19.9922 3.02717 18.7218V16.1754C3.02717 13.911 4.86936 12.0688 7.13374 12.0688H36.8663C39.1306 12.0688 40.9727 13.911 40.9727 16.1754V18.7218H40.9728Z" fill="#1C69FF"/>
</g>
</g>
<defs>
<clipPath id="clip0_10_11886">
<rect width="43" height="43" fill="white" transform="translate(0.5)"/>
</clipPath>
</defs>
</svg>
