<svg width="44" height="40" viewBox="0 0 44 40" fill="none" xmlns="http://www.w3.org/2000/svg">
<path d="M37.5564 5.85781C33.4011 2.08039 27.8764 0 22 0C16.1236 0 10.5989 2.08039 6.44359 5.85781C2.28843 9.63539 0 14.6578 0 20C0 25.3422 2.28843 30.3646 6.44359 34.1422C10.5989 37.9196 16.1236 40 22 40C27.8764 40 33.4011 37.9196 37.5564 34.1422C41.7116 30.3646 44 25.3422 44 20C44 14.6578 41.7116 9.63539 37.5564 5.85781ZM13.7837 4.00398C13.0688 5.08602 12.4279 6.36055 11.8746 7.81063C11.5785 8.58648 11.3153 9.39844 11.0817 10.238C9.53434 9.94117 8.05913 9.5807 6.68001 9.16016C8.55817 6.97133 10.9906 5.19445 13.7837 4.00398ZM5.18616 11.1706C6.84518 11.7098 8.64265 12.1637 10.5375 12.5274C10.1402 14.5201 9.90636 16.6384 9.84474 18.8281H2.62195C2.82296 16.053 3.73149 13.451 5.18616 11.1706ZM5.18117 28.8219C3.72943 26.5433 2.82279 23.9438 2.62195 21.1719H9.84474C9.90627 23.3597 10.1398 25.4763 10.5364 27.4675C8.64041 27.8304 6.84157 28.2834 5.18117 28.8219ZM6.67425 30.833C8.05484 30.413 9.5315 30.0531 11.0803 29.757C11.3141 30.5984 11.5779 31.4121 11.8746 32.1895C12.4279 33.6395 13.0688 34.914 13.7837 35.996C10.9878 34.8044 8.55327 33.025 6.67425 30.833ZM20.7109 37.6164C19.9927 37.5739 19.2777 37.4951 18.5691 37.3804C16.6797 36.321 14.7928 33.4866 13.6137 29.3383C15.8862 29.0195 18.2745 28.8305 20.7109 28.7814V37.6164ZM20.7109 26.437C18.0894 26.4877 15.5148 26.6943 13.0641 27.0452C12.7113 25.2641 12.4835 23.2973 12.4218 21.1719H20.7109V26.437ZM20.7109 18.8281H12.4218C12.4835 16.7012 12.7115 14.7331 13.0648 12.9509C15.5148 13.3029 18.0891 13.5105 20.7109 13.5624V18.8281ZM20.7109 11.218C18.2744 11.1679 15.8865 10.978 13.6147 10.658C14.7939 6.51172 16.6803 3.67859 18.5692 2.61961C19.2777 2.50487 19.9928 2.42608 20.7109 2.38359V11.218ZM38.8187 11.1781C40.2706 13.4568 41.1772 16.0562 41.378 18.8281H34.1553C34.0937 16.6403 33.8602 14.5237 33.4635 12.5325C35.3595 12.1696 37.1583 11.7166 38.8187 11.1781ZM37.3257 9.16695C35.9451 9.58695 34.4684 9.94687 32.9196 10.243C32.6858 9.40164 32.422 8.58805 32.1254 7.81063C31.5721 6.36055 30.9312 5.08602 30.2163 4.00398C33.0122 5.19562 35.4467 6.975 37.3257 9.16695ZM23.2891 2.38359C24.0143 2.42703 24.7292 2.50547 25.4308 2.61961C27.3202 3.67891 29.2071 6.51336 30.3863 10.6617C28.1138 10.9805 25.7255 11.1695 23.2891 11.2186V2.38359ZM23.2891 13.563C25.9106 13.5123 28.4852 13.3057 30.9359 12.9548C31.2887 14.736 31.5165 16.7027 31.5782 18.8282H23.2891V13.563ZM23.2891 21.1719H31.5782C31.5165 23.2988 31.2885 25.2669 30.9352 27.0491C28.4852 26.6971 25.911 26.4895 23.2891 26.4376V21.1719ZM25.4309 37.3804C24.7223 37.4951 24.0073 37.5739 23.2891 37.6164V28.782C25.7256 28.8321 28.1136 29.022 30.3853 29.342C29.2061 33.4883 27.3198 36.3213 25.4309 37.3804ZM30.2163 35.996C30.9312 34.914 31.5721 33.6396 32.1254 32.1895C32.4215 31.4136 32.6848 30.6016 32.9184 29.762C34.4657 30.0588 35.941 30.4193 37.3201 30.8398C35.4418 33.0287 33.0094 34.8055 30.2163 35.996ZM38.8138 28.8294C37.1548 28.2902 35.3573 27.8362 33.4625 27.4726C33.8598 25.4799 34.0936 23.3616 34.1552 21.1719H41.378C41.177 23.947 40.2685 26.549 38.8138 28.8294Z" fill="#1C69FF"/>
</svg>
