<svg width="44" height="39" viewBox="0 0 44 39" fill="none" xmlns="http://www.w3.org/2000/svg">
<path d="M36.8663 7.54162H30.6372V3.64945C30.6372 1.89175 29.1926 0.461914 27.4169 0.461914H16.5831C14.8075 0.461914 13.3629 1.89191 13.3629 3.64945V7.54162H7.13374C3.4759 7.54162 0.5 10.5175 0.5 14.1754V33.1194C0.5 36.1073 2.93075 38.5381 5.91866 38.5381H38.0813C41.0692 38.5381 43.5 36.1073 43.5 33.1194V14.1754C43.4999 10.5175 40.524 7.54162 36.8663 7.54162ZM15.89 3.64945C15.89 3.27295 16.188 2.98908 16.5831 2.98908H27.4169C27.812 2.98908 28.11 3.27295 28.11 3.64945V7.54162H15.89V3.64945ZM40.9727 33.1194C40.9727 34.7138 39.6757 36.0109 38.0813 36.0109H5.91866C4.32422 36.0109 3.02717 34.7138 3.02717 33.1194V21.3165C3.43039 21.5696 3.86496 21.769 4.31985 21.9095C4.34404 21.9169 4.3684 21.9237 4.39292 21.9297L17.2662 25.0758V26.1151C17.2662 27.7467 18.5936 29.0742 20.2253 29.0742H23.7746C25.4063 29.0742 26.7337 27.7467 26.7337 26.1151V25.0758L39.607 21.9297C39.6316 21.9237 39.656 21.917 39.6801 21.9095C40.1349 21.7689 40.5695 21.5696 40.9727 21.3165V33.1194H40.9727ZM19.7934 26.1151V22.5498C19.7936 22.4352 19.8391 22.3255 19.9201 22.2445C20.0011 22.1635 20.1109 22.118 20.2254 22.1178H23.7747C23.8892 22.1179 23.999 22.1635 24.08 22.2445C24.161 22.3254 24.2065 22.4352 24.2066 22.5498V26.1151C24.2065 26.2296 24.161 26.3394 24.08 26.4203C23.999 26.5013 23.8892 26.5469 23.7747 26.547H20.2254C20.1109 26.5468 20.0011 26.5013 19.9201 26.4203C19.8392 26.3393 19.7936 26.2296 19.7934 26.1151ZM40.9728 16.7218C40.9728 17.9922 40.1683 19.098 38.967 19.4845L26.732 22.4746C26.6919 20.8776 25.3812 19.5905 23.7747 19.5905H20.2254C18.6189 19.5905 17.3083 20.8776 17.2681 22.4746L5.03296 19.4846C3.83174 19.098 3.02717 17.9922 3.02717 16.7218V14.1754C3.02717 11.911 4.86936 10.0688 7.13374 10.0688H36.8663C39.1306 10.0688 40.9727 11.911 40.9727 14.1754V16.7218H40.9728Z" fill="#1C69FF"/>
</svg>
