<svg width="63" height="63" viewBox="0 0 63 63" fill="none" xmlns="http://www.w3.org/2000/svg">
<g id="Group">
<path id="Vector" d="M31.0581 36.5237C33.8335 36.5237 36.0835 34.2803 36.0835 31.5131C36.0835 28.7458 33.8335 26.5024 31.0581 26.5024C28.2826 26.5024 26.0327 28.7458 26.0327 31.5131C26.0327 34.2803 28.2826 36.5237 31.0581 36.5237Z" fill="#0067FC"/>
<path id="Vector_2" d="M38.746 43.5944C41.1504 43.5944 43.0995 41.651 43.0995 39.2537C43.0995 36.8565 41.1504 34.9131 38.746 34.9131C36.3417 34.9131 34.3926 36.8565 34.3926 39.2537C34.3926 41.651 36.3417 43.5944 38.746 43.5944Z" fill="#0067FC"/>
<path id="Vector_3" d="M46.1169 49.6632C48.0175 49.6632 49.5582 48.127 49.5582 46.232C49.5582 44.337 48.0175 42.8008 46.1169 42.8008C44.2163 42.8008 42.6756 44.337 42.6756 46.232C42.6756 48.127 44.2163 49.6632 46.1169 49.6632Z" fill="#0067FC"/>
<path id="Vector_4" d="M52.9179 55.7196C54.5288 55.7196 55.8348 54.4175 55.8348 52.8112C55.8348 51.205 54.5288 49.9028 52.9179 49.9028C51.3069 49.9028 50.0009 51.205 50.0009 52.8112C50.0009 54.4175 51.3069 55.7196 52.9179 55.7196Z" fill="#0067FC"/>
<path id="Vector_5" d="M58.835 60.2339C59.9431 60.2339 60.8413 59.3382 60.8413 58.2334C60.8413 57.1286 59.9431 56.2329 58.835 56.2329C57.7269 56.2329 56.8286 57.1286 56.8286 58.2334C56.8286 59.3382 57.7269 60.2339 58.835 60.2339Z" fill="#0067FC"/>
<path id="Vector_6" d="M51.3715 26.1361C52.9929 26.1361 54.3073 24.8255 54.3073 23.2089C54.3073 21.5923 52.9929 20.2817 51.3715 20.2817C49.7501 20.2817 48.4357 21.5923 48.4357 23.2089C48.4357 24.8255 49.7501 26.1361 51.3715 26.1361Z" fill="#0067FC"/>
<path id="Vector_7" d="M23.1157 53.9036C24.7371 53.9036 26.0515 52.5931 26.0515 50.9765C26.0515 49.3599 24.7371 48.0493 23.1157 48.0493C21.4944 48.0493 20.18 49.3599 20.18 50.9765C20.18 52.5931 21.4944 53.9036 23.1157 53.9036Z" fill="#0067FC"/>
<path id="Vector_8" d="M11.0414 41.9837C12.6628 41.9837 13.9772 40.6732 13.9772 39.0566C13.9772 37.4399 12.6628 36.1294 11.0414 36.1294C9.41998 36.1294 8.10559 37.4399 8.10559 39.0566C8.10559 40.6732 9.41998 41.9837 11.0414 41.9837Z" fill="#0067FC"/>
<path id="Vector_9" d="M56.5146 19.6761C57.7337 19.6761 58.7219 18.6908 58.7219 17.4753C58.7219 16.2598 57.7337 15.2744 56.5146 15.2744C55.2955 15.2744 54.3073 16.2598 54.3073 17.4753C54.3073 18.6908 55.2955 19.6761 56.5146 19.6761Z" fill="#0067FC"/>
<path id="Vector_10" d="M17.1123 58.1125C18.1667 58.1125 19.0214 57.2603 19.0214 56.2091C19.0214 55.1579 18.1667 54.3057 17.1123 54.3057C16.058 54.3057 15.2033 55.1579 15.2033 56.2091C15.2033 57.2603 16.058 58.1125 17.1123 58.1125Z" fill="#0067FC"/>
<path id="Vector_11" d="M5.84801 47.176C6.90234 47.176 7.75705 46.3238 7.75705 45.2726C7.75705 44.2213 6.90234 43.3691 5.84801 43.3691C4.79367 43.3691 3.93896 44.2213 3.93896 45.2726C3.93896 46.3238 4.79367 47.176 5.84801 47.176Z" fill="#0067FC"/>
<path id="Vector_12" d="M11.7227 62.5048C12.6262 62.5048 13.3586 61.7746 13.3586 60.8737C13.3586 59.9729 12.6262 59.2427 11.7227 59.2427C10.8193 59.2427 10.0869 59.9729 10.0869 60.8737C10.0869 61.7746 10.8193 62.5048 11.7227 62.5048Z" fill="#0067FC"/>
<path id="Vector_13" d="M1.63587 51.9467C2.53934 51.9467 3.27175 51.2165 3.27175 50.3156C3.27175 49.4148 2.53934 48.6846 1.63587 48.6846C0.732406 48.6846 0 49.4148 0 50.3156C0 51.2165 0.732406 51.9467 1.63587 51.9467Z" fill="#0067FC"/>
<path id="Vector_14" d="M45.1325 35.2105C47.1805 35.2105 48.8407 33.5552 48.8407 31.5132C48.8407 29.4713 47.1805 27.8159 45.1325 27.8159C43.0846 27.8159 41.4243 29.4713 41.4243 31.5132C41.4243 33.5552 43.0846 35.2105 45.1325 35.2105Z" fill="#0067FC"/>
<path id="Vector_15" d="M56.3702 47.6283C57.5242 47.6283 58.4597 46.6955 58.4597 45.5449C58.4597 44.3942 57.5242 43.4614 56.3702 43.4614C55.2161 43.4614 54.2806 44.3942 54.2806 45.5449C54.2806 46.6955 55.2161 47.6283 56.3702 47.6283Z" fill="#0067FC"/>
<path id="Vector_16" d="M51.0952 42.4876C52.7166 42.4876 54.031 41.1771 54.031 39.5605C54.031 37.9438 52.7166 36.6333 51.0952 36.6333C49.4738 36.6333 48.1594 37.9438 48.1594 39.5605C48.1594 41.1771 49.4738 42.4876 51.0952 42.4876Z" fill="#0067FC"/>
<path id="Vector_17" d="M60.7848 52.3351C61.5331 52.3351 62.1397 51.7302 62.1397 50.9842C62.1397 50.2381 61.5331 49.6333 60.7848 49.6333C60.0366 49.6333 59.43 50.2381 59.43 50.9842C59.43 51.7302 60.0366 52.3351 60.7848 52.3351Z" fill="#0067FC"/>
<path id="Vector_18" d="M17.3196 8.44668C18.4736 8.44668 19.4092 7.51389 19.4092 6.36323C19.4092 5.21258 18.4736 4.27979 17.3196 4.27979C16.1655 4.27979 15.23 5.21258 15.23 6.36323C15.23 7.51389 16.1655 8.44668 17.3196 8.44668Z" fill="#0067FC"/>
<path id="Vector_19" d="M23.1157 14.7625C24.7371 14.7625 26.0515 13.452 26.0515 11.8354C26.0515 10.2187 24.7371 8.9082 23.1157 8.9082C21.4944 8.9082 20.18 10.2187 20.18 11.8354C20.18 13.452 21.4944 14.7625 23.1157 14.7625Z" fill="#0067FC"/>
<path id="Vector_20" d="M12.4229 2.70175C13.1712 2.70175 13.7778 2.09695 13.7778 1.35088C13.7778 0.604808 13.1712 0 12.4229 0C11.6746 0 11.0681 0.604808 11.0681 1.35088C11.0681 2.09695 11.6746 2.70175 12.4229 2.70175Z" fill="#0067FC"/>
<path id="Vector_21" d="M10.112 11.6523C11.266 11.6523 12.2016 10.7195 12.2016 9.5688C12.2016 8.41814 11.266 7.48535 10.112 7.48535C8.95794 7.48535 8.0224 8.41814 8.0224 9.5688C8.0224 10.7195 8.95794 11.6523 10.112 11.6523Z" fill="#0067FC"/>
<path id="Vector_22" d="M16.9836 19.4382C18.7541 19.4382 20.1894 18.0071 20.1894 16.2418C20.1894 14.4765 18.7541 13.0454 16.9836 13.0454C15.2131 13.0454 13.7778 14.4765 13.7778 16.2418C13.7778 18.0071 15.2131 19.4382 16.9836 19.4382Z" fill="#0067FC"/>
<path id="Vector_23" d="M4.77264 5.02793C5.52091 5.02793 6.1275 4.42312 6.1275 3.67705C6.1275 2.93098 5.52091 2.32617 4.77264 2.32617C4.02437 2.32617 3.41779 2.93098 3.41779 3.67705C3.41779 4.42312 4.02437 5.02793 4.77264 5.02793Z" fill="#0067FC"/>
<path id="Vector_24" d="M23.4423 28.0084C25.8466 28.0084 27.7957 26.0651 27.7957 23.6678C27.7957 21.2705 25.8466 19.3271 23.4423 19.3271C21.038 19.3271 19.0889 21.2705 19.0889 23.6678C19.0889 26.0651 21.038 28.0084 23.4423 28.0084Z" fill="#0067FC"/>
<path id="Vector_25" d="M31.4725 21.3497C33.5205 21.3497 35.1807 19.6943 35.1807 17.6524C35.1807 15.6104 33.5205 13.9551 31.4725 13.9551C29.4246 13.9551 27.7643 15.6104 27.7643 17.6524C27.7643 19.6943 29.4246 21.3497 31.4725 21.3497Z" fill="#0067FC"/>
<path id="Vector_26" d="M39.1935 13.7313C40.8149 13.7313 42.1293 12.4207 42.1293 10.8041C42.1293 9.18749 40.8149 7.87695 39.1935 7.87695C37.5721 7.87695 36.2577 9.18749 36.2577 10.8041C36.2577 12.4207 37.5721 13.7313 39.1935 13.7313Z" fill="#0067FC"/>
<path id="Vector_27" d="M45.6852 8.53256C46.9043 8.53256 47.8925 7.5472 47.8925 6.33171C47.8925 5.11621 46.9043 4.13086 45.6852 4.13086C44.4661 4.13086 43.4778 5.11621 43.4778 6.33171C43.4778 7.5472 44.4661 8.53256 45.6852 8.53256Z" fill="#0067FC"/>
<path id="Vector_28" d="M51.2773 3.83685C52.1808 3.83685 52.9132 3.10659 52.9132 2.20578C52.9132 1.30496 52.1808 0.574707 51.2773 0.574707C50.3738 0.574707 49.6414 1.30496 49.6414 2.20578C49.6414 3.10659 50.3738 3.83685 51.2773 3.83685Z" fill="#0067FC"/>
<path id="Vector_29" d="M61.3641 13.4667C62.2676 13.4667 63 12.7365 63 11.8357C63 10.9348 62.2676 10.2046 61.3641 10.2046C60.4606 10.2046 59.7282 10.9348 59.7282 11.8357C59.7282 12.7365 60.4606 13.4667 61.3641 13.4667Z" fill="#0067FC"/>
<path id="Vector_30" d="M38.8936 27.8595C41.2156 27.8595 43.0979 25.9827 43.0979 23.6675C43.0979 21.3524 41.2156 19.4756 38.8936 19.4756C36.5717 19.4756 34.6893 21.3524 34.6893 23.6675C34.6893 25.9827 36.5717 27.8595 38.8936 27.8595Z" fill="#0067FC"/>
<path id="Vector_31" d="M31.3391 49.2935C33.3871 49.2935 35.0473 47.6382 35.0473 45.5962C35.0473 43.5543 33.3871 41.8989 31.3391 41.8989C29.2911 41.8989 27.6309 43.5543 27.6309 45.5962C27.6309 47.6382 29.2911 49.2935 31.3391 49.2935Z" fill="#0067FC"/>
<path id="Vector_32" d="M45.4952 58.6386C46.6493 58.6386 47.5848 57.7058 47.5848 56.5551C47.5848 55.4045 46.6493 54.4717 45.4952 54.4717C44.3412 54.4717 43.4056 55.4045 43.4056 56.5551C43.4056 57.7058 44.3412 58.6386 45.4952 58.6386Z" fill="#0067FC"/>
<path id="Vector_33" d="M39.1935 54.8739C40.8149 54.8739 42.1293 53.5633 42.1293 51.9467C42.1293 50.3301 40.8149 49.0195 39.1935 49.0195C37.5721 49.0195 36.2577 50.3301 36.2577 51.9467C36.2577 53.5633 37.5721 54.8739 39.1935 54.8739Z" fill="#0067FC"/>
<path id="Vector_34" d="M51.0497 62.1827C51.7979 62.1827 52.4045 61.5779 52.4045 60.8318C52.4045 60.0858 51.7979 59.481 51.0497 59.481C50.3014 59.481 49.6948 60.0858 49.6948 60.8318C49.6948 61.5779 50.3014 62.1827 51.0497 62.1827Z" fill="#0067FC"/>
<path id="Vector_35" d="M6.01598 19.0956C7.17002 19.0956 8.10557 18.1628 8.10557 17.0122C8.10557 15.8615 7.17002 14.9287 6.01598 14.9287C4.86193 14.9287 3.92639 15.8615 3.92639 17.0122C3.92639 18.1628 4.86193 19.0956 6.01598 19.0956Z" fill="#0067FC"/>
<path id="Vector_36" d="M11.0414 26.1361C12.6628 26.1361 13.9772 24.8255 13.9772 23.2089C13.9772 21.5923 12.6628 20.2817 11.0414 20.2817C9.41998 20.2817 8.10559 21.5923 8.10559 23.2089C8.10559 24.8255 9.41998 26.1361 11.0414 26.1361Z" fill="#0067FC"/>
<path id="Vector_37" d="M1.86194 13.1861C2.6102 13.1861 3.21679 12.5813 3.21679 11.8353C3.21679 11.0892 2.6102 10.4844 1.86194 10.4844C1.11367 10.4844 0.50708 11.0892 0.50708 11.8353C0.50708 12.5813 1.11367 13.1861 1.86194 13.1861Z" fill="#0067FC"/>
<path id="Vector_38" d="M16.9836 35.2105C19.0316 35.2105 20.6918 33.5552 20.6918 31.5132C20.6918 29.4713 19.0316 27.8159 16.9836 27.8159C14.9356 27.8159 13.2754 29.4713 13.2754 31.5132C13.2754 33.5552 14.9356 35.2105 16.9836 35.2105Z" fill="#0067FC"/>
<path id="Vector_39" d="M22.4799 43.4454C24.8019 43.4454 26.6842 41.5686 26.6842 39.2535C26.6842 36.9383 24.8019 35.0615 22.4799 35.0615C20.158 35.0615 18.2756 36.9383 18.2756 39.2535C18.2756 41.5686 20.158 43.4454 22.4799 43.4454Z" fill="#0067FC"/>
<path id="Vector_40" d="M46.5502 19.9986C48.4568 19.9986 50.0025 18.4575 50.0025 16.5564C50.0025 14.6554 48.4568 13.1143 46.5502 13.1143C44.6435 13.1143 43.0979 14.6554 43.0979 16.5564C43.0979 18.4575 44.6435 19.9986 46.5502 19.9986Z" fill="#0067FC"/>
<path id="Vector_41" d="M16.4262 49.6739C18.3329 49.6739 19.8785 48.1328 19.8785 46.2317C19.8785 44.3307 18.3329 42.7896 16.4262 42.7896C14.5196 42.7896 12.9739 44.3307 12.9739 46.2317C12.9739 48.1328 14.5196 49.6739 16.4262 49.6739Z" fill="#0067FC"/>
<path id="Vector_42" d="M53.18 12.6946C54.6514 12.6946 55.8442 11.5053 55.8442 10.0382C55.8442 8.57113 54.6514 7.38184 53.18 7.38184C51.7087 7.38184 50.5159 8.57113 50.5159 10.0382C50.5159 11.5053 51.7087 12.6946 53.18 12.6946Z" fill="#0067FC"/>
<path id="Vector_43" d="M9.75873 55.4675C11.2301 55.4675 12.4229 54.2782 12.4229 52.8111C12.4229 51.3441 11.2301 50.1548 9.75873 50.1548C8.28734 50.1548 7.09454 51.3441 7.09454 52.8111C7.09454 54.2782 8.28734 55.4675 9.75873 55.4675Z" fill="#0067FC"/>
<path id="Vector_44" d="M58.7941 6.58394C59.7167 6.58394 60.4645 5.83827 60.4645 4.91844C60.4645 3.9986 59.7167 3.25293 58.7941 3.25293C57.8716 3.25293 57.1237 3.9986 57.1237 4.91844C57.1237 5.83827 57.8716 6.58394 58.7941 6.58394Z" fill="#0067FC"/>
<path id="Vector_45" d="M4.44135 60.0849C5.36389 60.0849 6.11176 59.3392 6.11176 58.4194C6.11176 57.4996 5.36389 56.7539 4.44135 56.7539C3.5188 56.7539 2.77094 57.4996 2.77094 58.4194C2.77094 59.3392 3.5188 60.0849 4.44135 60.0849Z" fill="#0067FC"/>
</g>
</svg>
