<svg width="52" height="51" viewBox="0 0 52 51" fill="none" xmlns="http://www.w3.org/2000/svg">
<g id="Frame" clip-path="url(#clip0_37_8)">
<g id="Group">
<path id="Vector" d="M44.0293 26.7103H39.0371C38.3576 26.7103 37.6998 26.8032 37.0738 26.9739C35.8388 24.5462 33.3175 22.8782 30.4122 22.8782H21.5878C18.6825 22.8782 16.1612 24.5462 14.9262 26.9739C14.2864 26.7991 13.6262 26.7104 12.9629 26.7103H7.9707C3.85136 26.7103 0.5 30.0617 0.5 34.1811V42.1616C0.5 44.6332 2.51081 46.644 4.98242 46.644H47.0176C49.4892 46.644 51.5 44.6332 51.5 42.1616V34.1811C51.5 30.0617 48.1486 26.7103 44.0293 26.7103ZM14.1171 30.3491V43.6558H4.98242C4.15855 43.6558 3.48828 42.9855 3.48828 42.1617V34.1812C3.48828 31.7095 5.4991 29.6987 7.9707 29.6987H12.9629C13.3685 29.6987 13.7613 29.7538 14.1352 29.8553C14.1238 30.0197 14.1177 30.1843 14.1171 30.3491ZM34.8946 43.6558H17.1054V30.349C17.1054 27.8774 19.1162 25.8666 21.5878 25.8666H30.4122C32.8838 25.8666 34.8946 27.8774 34.8946 30.349V43.6558ZM48.5117 42.1617C48.5117 42.9855 47.8414 43.6558 47.0176 43.6558H37.8829V30.349C37.8823 30.1842 37.8762 30.0196 37.8648 29.8552C38.2469 29.7514 38.6411 29.6987 39.0371 29.6986H44.0293C46.5009 29.6986 48.5117 31.7094 48.5117 34.1811V42.1617Z" fill="#1C69FF"/>
<path id="Vector_2" d="M10.4669 12.6009C6.80636 12.6009 3.82834 15.5789 3.82834 19.2394C3.82824 22.9 6.80636 25.878 10.4669 25.878C14.1273 25.878 17.1055 22.9 17.1055 19.2394C17.1055 15.5789 14.1274 12.6009 10.4669 12.6009ZM10.4668 22.8897C8.454 22.8897 6.81652 21.2523 6.81652 19.2394C6.81652 17.2266 8.454 15.5892 10.4668 15.5892C12.4796 15.5892 14.1171 17.2266 14.1171 19.2394C14.1171 21.2523 12.4796 22.8897 10.4668 22.8897ZM26 4.35571C21.1096 4.35571 17.131 8.33431 17.131 13.2247C17.131 18.1152 21.1096 22.0938 26 22.0938C30.8904 22.0938 34.869 18.1152 34.869 13.2247C34.869 8.33441 30.8904 4.35571 26 4.35571ZM26 19.1055C22.7573 19.1055 20.1193 16.4674 20.1193 13.2247C20.1193 9.98215 22.7573 7.34399 26 7.34399C29.2427 7.34399 31.8807 9.98205 31.8807 13.2247C31.8807 16.4674 29.2427 19.1055 26 19.1055ZM41.5331 12.6009C37.8726 12.6009 34.8945 15.5789 34.8945 19.2394C34.8946 22.9 37.8726 25.878 41.5331 25.878C45.1936 25.878 48.1716 22.9 48.1716 19.2394C48.1716 15.5789 45.1936 12.6009 41.5331 12.6009ZM41.5331 22.8897C39.5204 22.8897 37.8828 21.2523 37.8828 19.2394C37.8829 17.2266 39.5204 15.5892 41.5331 15.5892C43.5459 15.5892 45.1834 17.2266 45.1834 19.2394C45.1834 21.2523 43.5459 22.8897 41.5331 22.8897Z" fill="#1C69FF"/>
</g>
</g>
<defs>
<clipPath id="clip0_37_8">
<rect width="51" height="51" fill="white" transform="translate(0.5)"/>
</clipPath>
</defs>
</svg>
