<svg width="281" height="194" viewBox="0 0 281 194" fill="none" xmlns="http://www.w3.org/2000/svg">
<g clip-path="url(#clip0_209_1784)">
<path d="M139.529 79.8666C145.627 79.8666 150.57 74.9611 150.57 68.9098C150.57 62.8586 145.627 57.9531 139.529 57.9531C133.431 57.9531 128.488 62.8586 128.488 68.9098C128.488 74.9611 133.431 79.8666 139.529 79.8666Z" fill="#0067FC"/>
<path d="M156.42 95.3278C161.702 95.3278 165.985 91.0782 165.985 85.8361C165.985 80.594 161.702 76.3444 156.42 76.3444C151.138 76.3444 146.855 80.594 146.855 85.8361C146.855 91.0782 151.138 95.3278 156.42 95.3278Z" fill="#0067FC"/>
<path d="M172.614 108.598C176.79 108.598 180.175 105.239 180.175 101.095C180.175 96.9516 176.79 93.5924 172.614 93.5924C168.439 93.5924 165.053 96.9516 165.053 101.095C165.053 105.239 168.439 108.598 172.614 108.598Z" fill="#0067FC"/>
<path d="M187.556 121.842C191.096 121.842 193.965 118.994 193.965 115.482C193.965 111.969 191.096 109.122 187.556 109.122C184.017 109.122 181.148 111.969 181.148 115.482C181.148 118.994 184.017 121.842 187.556 121.842Z" fill="#0067FC"/>
<path d="M200.557 131.713C202.991 131.713 204.965 129.755 204.965 127.339C204.965 124.923 202.991 122.964 200.557 122.964C198.122 122.964 196.148 124.923 196.148 127.339C196.148 129.755 198.122 131.713 200.557 131.713Z" fill="#0067FC"/>
<path d="M184.159 57.1521C187.721 57.1521 190.609 54.2864 190.609 50.7513C190.609 47.2162 187.721 44.3505 184.159 44.3505C180.597 44.3505 177.709 47.2162 177.709 50.7513C177.709 54.2864 180.597 57.1521 184.159 57.1521Z" fill="#0067FC"/>
<path d="M122.079 117.871C125.642 117.871 128.529 115.005 128.529 111.47C128.529 107.935 125.642 105.069 122.079 105.069C118.517 105.069 115.629 107.935 115.629 111.47C115.629 115.005 118.517 117.871 122.079 117.871Z" fill="#0067FC"/>
<path d="M95.5511 91.8056C99.1134 91.8056 102.001 88.9398 102.001 85.4047C102.001 81.8697 99.1134 79.0039 95.5511 79.0039C91.9888 79.0039 89.101 81.8697 89.101 85.4047C89.101 88.9398 91.9888 91.8056 95.5511 91.8056Z" fill="#0067FC"/>
<path d="M195.459 43.0258C198.137 43.0258 200.308 40.8712 200.308 38.2132C200.308 35.5553 198.137 33.4006 195.459 33.4006C192.78 33.4006 190.609 35.5553 190.609 38.2132C190.609 40.8712 192.78 43.0258 195.459 43.0258Z" fill="#0067FC"/>
<path d="M108.889 127.075C111.206 127.075 113.084 125.212 113.084 122.913C113.084 120.614 111.206 118.751 108.889 118.751C106.573 118.751 104.695 120.614 104.695 122.913C104.695 125.212 106.573 127.075 108.889 127.075Z" fill="#0067FC"/>
<path d="M84.141 103.159C86.4574 103.159 88.3353 101.296 88.3353 98.9971C88.3353 96.6983 86.4574 94.8348 84.141 94.8348C81.8246 94.8348 79.9467 96.6983 79.9467 98.9971C79.9467 101.296 81.8246 103.159 84.141 103.159Z" fill="#0067FC"/>
<path d="M97.0481 136.68C99.0331 136.68 100.642 135.083 100.642 133.113C100.642 131.143 99.0331 129.547 97.0481 129.547C95.0631 129.547 93.454 131.143 93.454 133.113C93.454 135.083 95.0631 136.68 97.0481 136.68Z" fill="#0067FC"/>
<path d="M74.8867 113.592C76.8716 113.592 78.4808 111.996 78.4808 110.026C78.4808 108.056 76.8716 106.459 74.8867 106.459C72.9017 106.459 71.2925 108.056 71.2925 110.026C71.2925 111.996 72.9017 113.592 74.8867 113.592Z" fill="#0067FC"/>
<path d="M170.452 76.9948C174.951 76.9948 178.599 73.375 178.599 68.9099C178.599 64.4447 174.951 60.825 170.452 60.825C165.952 60.825 162.304 64.4447 162.304 68.9099C162.304 73.375 165.952 76.9948 170.452 76.9948Z" fill="#0067FC"/>
<path d="M195.141 104.149C197.677 104.149 199.732 102.109 199.732 99.5928C199.732 97.0766 197.677 95.0369 195.141 95.0369C192.606 95.0369 190.55 97.0766 190.55 99.5928C190.55 102.109 192.606 104.149 195.141 104.149Z" fill="#0067FC"/>
<path d="M183.552 92.9077C187.114 92.9077 190.002 90.042 190.002 86.5069C190.002 82.9718 187.114 80.1061 183.552 80.1061C179.99 80.1061 177.102 82.9718 177.102 86.5069C177.102 90.042 179.99 92.9077 183.552 92.9077Z" fill="#0067FC"/>
<path d="M204.841 114.441C206.485 114.441 207.817 113.119 207.817 111.487C207.817 109.856 206.485 108.533 204.841 108.533C203.197 108.533 201.864 109.856 201.864 111.487C201.864 113.119 203.197 114.441 204.841 114.441Z" fill="#0067FC"/>
<path d="M109.345 18.4699C111.88 18.4699 113.936 16.4302 113.936 13.914C113.936 11.3979 111.88 9.35815 109.345 9.35815C106.809 9.35815 104.754 11.3979 104.754 13.914C104.754 16.4302 106.809 18.4699 109.345 18.4699Z" fill="#0067FC"/>
<path d="M122.079 32.2813C125.642 32.2813 128.529 29.4155 128.529 25.8804C128.529 22.3454 125.642 19.4796 122.079 19.4796C118.517 19.4796 115.629 22.3454 115.629 25.8804C115.629 29.4155 118.517 32.2813 122.079 32.2813Z" fill="#0067FC"/>
<path d="M98.5864 5.90781C100.23 5.90781 101.563 4.58528 101.563 2.95385C101.563 1.32241 100.23 -0.00012207 98.5864 -0.00012207C96.9425 -0.00012207 95.6097 1.32241 95.6097 2.95385C95.6097 4.58528 96.9425 5.90781 98.5864 5.90781Z" fill="#0067FC"/>
<path d="M93.5092 25.4799C96.0447 25.4799 98.1001 23.4402 98.1001 20.9241C98.1001 18.4079 96.0447 16.3682 93.5092 16.3682C90.9737 16.3682 88.9182 18.4079 88.9182 20.9241C88.9182 23.4402 90.9737 25.4799 93.5092 25.4799Z" fill="#0067FC"/>
<path d="M108.607 42.5055C112.496 42.5055 115.65 39.3762 115.65 35.5159C115.65 31.6557 112.496 28.5264 108.607 28.5264C104.717 28.5264 101.563 31.6557 101.563 35.5159C101.563 39.3762 104.717 42.5055 108.607 42.5055Z" fill="#0067FC"/>
<path d="M81.7783 10.9942C83.4223 10.9942 84.755 9.6717 84.755 8.04027C84.755 6.40884 83.4223 5.0863 81.7783 5.0863C80.1343 5.0863 78.8016 6.40884 78.8016 8.04027C78.8016 9.6717 80.1343 10.9942 81.7783 10.9942Z" fill="#0067FC"/>
<path d="M122.797 61.2459C128.079 61.2459 132.362 56.9963 132.362 51.7542C132.362 46.512 128.079 42.2625 122.797 42.2625C117.514 42.2625 113.232 46.512 113.232 51.7542C113.232 56.9963 117.514 61.2459 122.797 61.2459Z" fill="#0067FC"/>
<path d="M140.44 46.6849C144.939 46.6849 148.587 43.0652 148.587 38.6C148.587 34.1349 144.939 30.5151 140.44 30.5151C135.94 30.5151 132.293 34.1349 132.293 38.6C132.293 43.0652 135.94 46.6849 140.44 46.6849Z" fill="#0067FC"/>
<path d="M157.403 30.0255C160.965 30.0255 163.853 27.1598 163.853 23.6247C163.853 20.0896 160.965 17.2239 157.403 17.2239C153.841 17.2239 150.953 20.0896 150.953 23.6247C150.953 27.1598 153.841 30.0255 157.403 30.0255Z" fill="#0067FC"/>
<path d="M171.666 18.6582C174.344 18.6582 176.515 16.5035 176.515 13.8456C176.515 11.1876 174.344 9.03296 171.666 9.03296C168.987 9.03296 166.816 11.1876 166.816 13.8456C166.816 16.5035 168.987 18.6582 171.666 18.6582Z" fill="#0067FC"/>
<path d="M183.952 8.38944C185.937 8.38944 187.546 6.79259 187.546 4.82277C187.546 2.85295 185.937 1.2561 183.952 1.2561C181.967 1.2561 180.358 2.85295 180.358 4.82277C180.358 6.79259 181.967 8.38944 183.952 8.38944Z" fill="#0067FC"/>
<path d="M206.113 29.4472C208.098 29.4472 209.707 27.8503 209.707 25.8805C209.707 23.9107 208.098 22.3138 206.113 22.3138C204.128 22.3138 202.519 23.9107 202.519 25.8805C202.519 27.8503 204.128 29.4472 206.113 29.4472Z" fill="#0067FC"/>
<path d="M156.744 60.9207C161.846 60.9207 165.981 56.8167 165.981 51.7542C165.981 46.6916 161.846 42.5876 156.744 42.5876C151.643 42.5876 147.507 46.6916 147.507 51.7542C147.507 56.8167 151.643 60.9207 156.744 60.9207Z" fill="#0067FC"/>
<path d="M140.146 107.791C144.646 107.791 148.294 104.171 148.294 99.7056C148.294 95.2405 144.646 91.6207 140.146 91.6207C135.647 91.6207 131.999 95.2405 131.999 99.7056C131.999 104.171 135.647 107.791 140.146 107.791Z" fill="#0067FC"/>
<path d="M171.248 128.225C173.784 128.225 175.839 126.186 175.839 123.669C175.839 121.153 173.784 119.114 171.248 119.114C168.713 119.114 166.657 121.153 166.657 123.669C166.657 126.186 168.713 128.225 171.248 128.225Z" fill="#0067FC"/>
<path d="M157.403 119.993C160.965 119.993 163.853 117.127 163.853 113.592C163.853 110.057 160.965 107.192 157.403 107.192C153.841 107.192 150.953 110.057 150.953 113.592C150.953 117.127 153.841 119.993 157.403 119.993Z" fill="#0067FC"/>
<path d="M183.452 135.975C185.096 135.975 186.429 134.652 186.429 133.021C186.429 131.389 185.096 130.067 183.452 130.067C181.808 130.067 180.475 131.389 180.475 133.021C180.475 134.652 181.808 135.975 183.452 135.975Z" fill="#0067FC"/>
<path d="M84.5101 41.7559C87.0456 41.7559 89.101 39.7162 89.101 37.2001C89.101 34.6839 87.0456 32.6442 84.5101 32.6442C81.9746 32.6442 79.9191 34.6839 79.9191 37.2001C79.9191 39.7162 81.9746 41.7559 84.5101 41.7559Z" fill="#0067FC"/>
<path d="M95.5511 57.1521C99.1134 57.1521 102.001 54.2864 102.001 50.7513C102.001 47.2162 99.1134 44.3505 95.5511 44.3505C91.9888 44.3505 89.101 47.2162 89.101 50.7513C89.101 54.2864 91.9888 57.1521 95.5511 57.1521Z" fill="#0067FC"/>
<path d="M75.3834 28.8344C77.0273 28.8344 78.3601 27.5119 78.3601 25.8805C78.3601 24.249 77.0273 22.9265 75.3834 22.9265C73.7394 22.9265 72.4066 24.249 72.4066 25.8805C72.4066 27.5119 73.7394 28.8344 75.3834 28.8344Z" fill="#0067FC"/>
<path d="M108.607 76.9948C113.106 76.9948 116.754 73.375 116.754 68.9099C116.754 64.4447 113.106 60.825 108.607 60.825C104.107 60.825 100.459 64.4447 100.459 68.9099C100.459 73.375 104.107 76.9948 108.607 76.9948Z" fill="#0067FC"/>
<path d="M120.682 95.0026C125.784 95.0026 129.919 90.8986 129.919 85.8361C129.919 80.7736 125.784 76.6696 120.682 76.6696C115.581 76.6696 111.445 80.7736 111.445 85.8361C111.445 90.8986 115.581 95.0026 120.682 95.0026Z" fill="#0067FC"/>
<path d="M173.566 43.7309C177.755 43.7309 181.151 40.361 181.151 36.204C181.151 32.0469 177.755 28.677 173.566 28.677C169.377 28.677 165.981 32.0469 165.981 36.204C165.981 40.361 169.377 43.7309 173.566 43.7309Z" fill="#0067FC"/>
<path d="M107.382 108.622C111.571 108.622 114.967 105.252 114.967 101.095C114.967 96.9383 111.571 93.5684 107.382 93.5684C103.193 93.5684 99.7971 96.9383 99.7971 101.095C99.7971 105.252 103.193 108.622 107.382 108.622Z" fill="#0067FC"/>
<path d="M188.132 27.7597C191.365 27.7597 193.986 25.159 193.986 21.951C193.986 18.743 191.365 16.1423 188.132 16.1423C184.9 16.1423 182.279 18.743 182.279 21.951C182.279 25.159 184.9 27.7597 188.132 27.7597Z" fill="#0067FC"/>
<path d="M92.7331 121.291C95.9658 121.291 98.5865 118.69 98.5865 115.482C98.5865 112.274 95.9658 109.673 92.7331 109.673C89.5003 109.673 86.8797 112.274 86.8797 115.482C86.8797 118.69 89.5003 121.291 92.7331 121.291Z" fill="#0067FC"/>
<path d="M200.467 14.3966C202.494 14.3966 204.137 12.766 204.137 10.7546C204.137 8.74324 202.494 7.11267 200.467 7.11267C198.44 7.11267 196.797 8.74324 196.797 10.7546C196.797 12.766 198.44 14.3966 200.467 14.3966Z" fill="#0067FC"/>
<path d="M81.0505 131.388C83.0773 131.388 84.7205 129.757 84.7205 127.746C84.7205 125.735 83.0773 124.104 81.0505 124.104C79.0236 124.104 77.3805 125.735 77.3805 127.746C77.3805 129.757 79.0236 131.388 81.0505 131.388Z" fill="#0067FC"/>
<path d="M216.44 175.584C216.151 177.446 215.737 180.14 215.233 182.937H216.654C216.585 180.174 216.527 177.679 216.499 175.584H216.44Z" fill="#050505"/>
<path d="M232.134 175.632C231.234 177.754 230.124 180.157 228.809 182.937H230.358C230.996 180.215 231.679 177.518 232.203 175.632H232.134Z" fill="#050505"/>
<path d="M8.66451 181.67L7.41244 170.967H0L1.95228 182.936H8.81628C8.76799 182.533 8.7197 182.115 8.66451 181.673V181.67Z" fill="#050505"/>
<path d="M10.9893 189.252H10.9203C10.872 187.978 10.7237 186 10.365 182.933H3.50098L5.45325 194.903H14.4351L21.5888 182.933H14.2281C12.031 186.969 11.6067 187.848 10.9824 189.252H10.9893Z" fill="#050505"/>
<path d="M19.1295 170.967L13.5728 181.307C13.2451 181.906 12.9554 182.44 12.6863 182.936H20.047L27.2008 170.967H19.1295Z" fill="#050505"/>
<path d="M50.9833 176.337L52.1423 170.967H29.4807L28.3218 176.337H35.9515L34.5477 182.936H41.967L43.364 176.337H50.9833Z" fill="#050505"/>
<path d="M33.5474 194.906H40.984L43.5157 182.937H36.0964L33.5474 194.906Z" fill="#050505"/>
<path d="M60.7171 179.945L61.4553 176.337H74.3382L75.4972 170.967H55.3777L52.8218 182.936H72.2859L72.9516 179.945H60.7171Z" fill="#050505"/>
<path d="M51.8146 194.906H72.2825L74.2623 189.536H60.1894L61.0724 185.315H73.3069L73.8346 182.937H54.3705L51.8146 194.906Z" fill="#050505"/>
<path d="M80.1398 170.967L77.584 182.936H85.024L87.5868 170.967H80.1398Z" fill="#050505"/>
<path d="M76.5768 194.906H95.6511L97.6621 189.536H85.162L86.5727 182.937H79.1327L76.5768 194.906Z" fill="#050505"/>
<path d="M108.148 179.945L108.886 176.337H121.769L122.928 170.967H102.808L100.252 182.936H119.717L120.382 179.945H108.148Z" fill="#050505"/>
<path d="M99.2453 194.906H119.713L121.693 189.536H107.623L108.503 185.315H120.738L121.265 182.937H101.801L99.2453 194.906Z" fill="#050505"/>
<path d="M138.36 175.478C141.564 175.478 142.451 177.063 142.599 178.22H150.091C149.677 173.893 145.976 170.419 138.67 170.419C129.823 170.419 124.677 176.286 123.807 182.933H131.723C132.272 179.031 134.652 175.475 138.36 175.475V175.478Z" fill="#050505"/>
<path d="M137.801 180.989L137.277 182.937H149.152L149.566 180.989H137.801Z" fill="#050505"/>
<path d="M137.939 186.223H142.864L142.83 186.325C142.478 187.619 141.592 190.268 137.68 190.268C134.576 190.268 133.151 188.276 133.151 184.662C133.151 184.087 133.193 183.508 133.272 182.94H125.356C125.266 183.611 125.222 184.292 125.222 184.973C125.222 190.487 128.24 195.454 135.473 195.454C139.608 195.454 141.581 194.335 143.078 192.812C143.013 193.712 143.023 194.383 143.106 194.906H148.163L150.701 182.937H138.825L137.939 186.223Z" fill="#050505"/>
<path d="M177.516 177.398C177.516 173.434 174.246 170.967 169.155 170.967H156.334L153.785 182.936H174.322C176.212 181.841 177.516 180.068 177.516 177.398ZM166.026 181.15H161.446L162.515 176.06H166.947C168.786 176.06 169.762 176.861 169.762 178.316C169.762 180.349 168.103 181.15 166.026 181.15Z" fill="#050505"/>
<path d="M152.781 194.906H160.076L161.949 186.055H166.537C168.903 186.055 169.196 187.133 168.668 189.56C168.01 192.432 167.982 193.9 168.189 194.906H175.398C175.239 193.76 175.446 192.004 175.957 189.779C176.836 185.634 174.915 184.275 173.97 183.765C174.642 183.549 175.281 183.272 175.86 182.937H155.323L152.774 194.906H152.781Z" fill="#050505"/>
<path d="M196.5 184.97H190.83C191.195 184.271 191.544 183.597 191.885 182.937H184.593L177.688 194.906H185.476L188.129 190.327H197.221L197.908 194.906H205.417L203.323 182.937H196.217C196.307 183.594 196.404 184.275 196.504 184.97H196.5Z" fill="#050505"/>
<path d="M189.95 170.967L183.045 182.936H190.336C191.827 180.041 193.037 177.562 193.751 175.896H193.858C193.969 177.511 194.262 180.017 194.662 182.936H201.767L199.674 170.967H189.95Z" fill="#050505"/>
<path d="M221.856 170.967H211.149L208.593 182.936H215.233C215.737 180.137 216.147 177.446 216.44 175.584H216.499C216.527 177.682 216.585 180.174 216.654 182.936H222.297C222.242 179.472 222.028 174.79 221.859 170.967H221.856Z" fill="#050505"/>
<path d="M207.586 194.906H214.278L215.964 187.116C216.258 185.757 216.53 184.333 216.782 182.937H210.142L207.586 194.906Z" fill="#050505"/>
<path d="M223.877 186.12H223.832C223.863 185.285 223.863 184.189 223.846 182.937H218.203C218.293 186.551 218.403 190.631 218.486 194.906H224.663C226.868 190.227 228.765 186.305 230.355 182.937H225.267C224.712 184.152 224.232 185.237 223.874 186.12H223.877Z" fill="#050505"/>
<path d="M231.031 186.839L229.327 194.906H236.636L239.192 182.937H231.91C231.6 184.261 231.3 185.593 231.034 186.839H231.031Z" fill="#050505"/>
<path d="M229.492 170.967C227.519 174.954 225.301 179.476 223.722 182.936H228.809C230.127 180.154 231.238 177.754 232.134 175.632H232.203C231.679 177.521 230.996 180.219 230.358 182.936H237.639L240.195 170.967H229.492Z" fill="#050505"/>
<path d="M242.124 194.906H249.56L252.113 182.937H244.679L242.124 194.906Z" fill="#050505"/>
<path d="M245.683 170.967L243.131 182.936H250.564L253.12 170.967H245.683Z" fill="#050505"/>
<path d="M262.819 182.937L251.957 194.906H260.098C260.567 194.201 266.013 187.838 266.386 187.277H266.455C266.634 187.838 269.735 194.201 269.976 194.906H278.099L271.797 182.937H262.822H262.819Z" fill="#050505"/>
<path d="M270.066 182.594L281 170.967H273.063C272.618 171.576 267.458 177.422 267.048 177.994L267.013 178.014C266.844 177.559 263.761 171.456 263.605 170.963H255.448L261.577 182.598L261.274 182.933H270.249L270.069 182.591L270.066 182.594Z" fill="#050505"/>
</g>
<defs>
<clipPath id="clip0_209_1784">
<rect width="281" height="194" fill="white"/>
</clipPath>
</defs>
</svg>
