<svg width="63" height="63" viewBox="0 0 63 63" fill="none" xmlns="http://www.w3.org/2000/svg">
<g id="Group">
<path id="Vector" d="M31.0581 36.5238C33.8335 36.5238 36.0835 34.2804 36.0835 31.5131C36.0835 28.7459 33.8335 26.5025 31.0581 26.5025C28.2826 26.5025 26.0327 28.7459 26.0327 31.5131C26.0327 34.2804 28.2826 36.5238 31.0581 36.5238Z" fill="#0067FC"/>
<path id="Vector_2" d="M38.7461 43.5943C41.1504 43.5943 43.0995 41.651 43.0995 39.2537C43.0995 36.8564 41.1504 34.913 38.7461 34.913C36.3417 34.913 34.3926 36.8564 34.3926 39.2537C34.3926 41.651 36.3417 43.5943 38.7461 43.5943Z" fill="#0067FC"/>
<path id="Vector_3" d="M46.1169 49.6631C48.0175 49.6631 49.5582 48.1269 49.5582 46.2319C49.5582 44.3369 48.0175 42.8007 46.1169 42.8007C44.2163 42.8007 42.6756 44.3369 42.6756 46.2319C42.6756 48.1269 44.2163 49.6631 46.1169 49.6631Z" fill="#0067FC"/>
<path id="Vector_4" d="M52.9179 55.7194C54.5288 55.7194 55.8348 54.4172 55.8348 52.811C55.8348 51.2047 54.5288 49.9026 52.9179 49.9026C51.3069 49.9026 50.0009 51.2047 50.0009 52.811C50.0009 54.4172 51.3069 55.7194 52.9179 55.7194Z" fill="#0067FC"/>
<path id="Vector_5" d="M58.8349 60.2338C59.943 60.2338 60.8413 59.3381 60.8413 58.2333C60.8413 57.1284 59.943 56.2328 58.8349 56.2328C57.7268 56.2328 56.8286 57.1284 56.8286 58.2333C56.8286 59.3381 57.7268 60.2338 58.8349 60.2338Z" fill="#0067FC"/>
<path id="Vector_6" d="M51.3714 26.1363C52.9928 26.1363 54.3072 24.8257 54.3072 23.2091C54.3072 21.5925 52.9928 20.282 51.3714 20.282C49.7501 20.282 48.4357 21.5925 48.4357 23.2091C48.4357 24.8257 49.7501 26.1363 51.3714 26.1363Z" fill="#0067FC"/>
<path id="Vector_7" d="M23.1158 53.9036C24.7372 53.9036 26.0516 52.593 26.0516 50.9764C26.0516 49.3598 24.7372 48.0493 23.1158 48.0493C21.4944 48.0493 20.18 49.3598 20.18 50.9764C20.18 52.593 21.4944 53.9036 23.1158 53.9036Z" fill="#0067FC"/>
<path id="Vector_8" d="M11.0414 41.9836C12.6628 41.9836 13.9772 40.6731 13.9772 39.0565C13.9772 37.4398 12.6628 36.1293 11.0414 36.1293C9.41998 36.1293 8.10559 37.4398 8.10559 39.0565C8.10559 40.6731 9.41998 41.9836 11.0414 41.9836Z" fill="#0067FC"/>
<path id="Vector_9" d="M56.5146 19.6762C57.7337 19.6762 58.7219 18.6908 58.7219 17.4753C58.7219 16.2598 57.7337 15.2745 56.5146 15.2745C55.2955 15.2745 54.3073 16.2598 54.3073 17.4753C54.3073 18.6908 55.2955 19.6762 56.5146 19.6762Z" fill="#0067FC"/>
<path id="Vector_10" d="M17.1123 58.1128C18.1666 58.1128 19.0213 57.2606 19.0213 56.2093C19.0213 55.1581 18.1666 54.3059 17.1123 54.3059C16.058 54.3059 15.2032 55.1581 15.2032 56.2093C15.2032 57.2606 16.058 58.1128 17.1123 58.1128Z" fill="#0067FC"/>
<path id="Vector_11" d="M5.84801 47.1758C6.90234 47.1758 7.75705 46.3236 7.75705 45.2724C7.75705 44.2211 6.90234 43.3689 5.84801 43.3689C4.79367 43.3689 3.93896 44.2211 3.93896 45.2724C3.93896 46.3236 4.79367 47.1758 5.84801 47.1758Z" fill="#0067FC"/>
<path id="Vector_12" d="M11.7227 62.5051C12.6262 62.5051 13.3586 61.7748 13.3586 60.874C13.3586 59.9732 12.6262 59.2429 11.7227 59.2429C10.8193 59.2429 10.0869 59.9732 10.0869 60.874C10.0869 61.7748 10.8193 62.5051 11.7227 62.5051Z" fill="#0067FC"/>
<path id="Vector_13" d="M1.63587 51.9469C2.53934 51.9469 3.27175 51.2167 3.27175 50.3159C3.27175 49.415 2.53934 48.6848 1.63587 48.6848C0.732406 48.6848 0 49.415 0 50.3159C0 51.2167 0.732406 51.9469 1.63587 51.9469Z" fill="#0067FC"/>
<path id="Vector_14" d="M45.1326 35.2105C47.1806 35.2105 48.8408 33.5551 48.8408 31.5132C48.8408 29.4712 47.1806 27.8159 45.1326 27.8159C43.0846 27.8159 41.4244 29.4712 41.4244 31.5132C41.4244 33.5551 43.0846 35.2105 45.1326 35.2105Z" fill="#0067FC"/>
<path id="Vector_15" d="M56.3702 47.6282C57.5242 47.6282 58.4597 46.6954 58.4597 45.5447C58.4597 44.3941 57.5242 43.4613 56.3702 43.4613C55.2161 43.4613 54.2806 44.3941 54.2806 45.5447C54.2806 46.6954 55.2161 47.6282 56.3702 47.6282Z" fill="#0067FC"/>
<path id="Vector_16" d="M51.0951 42.4877C52.7165 42.4877 54.0309 41.1771 54.0309 39.5605C54.0309 37.9439 52.7165 36.6334 51.0951 36.6334C49.4738 36.6334 48.1594 37.9439 48.1594 39.5605C48.1594 41.1771 49.4738 42.4877 51.0951 42.4877Z" fill="#0067FC"/>
<path id="Vector_17" d="M60.7848 52.3351C61.5331 52.3351 62.1396 51.7303 62.1396 50.9843C62.1396 50.2382 61.5331 49.6334 60.7848 49.6334C60.0365 49.6334 59.4299 50.2382 59.4299 50.9843C59.4299 51.7303 60.0365 52.3351 60.7848 52.3351Z" fill="#0067FC"/>
<path id="Vector_18" d="M17.3196 8.4465C18.4736 8.4465 19.4092 7.51371 19.4092 6.36305C19.4092 5.21239 18.4736 4.2796 17.3196 4.2796C16.1655 4.2796 15.23 5.21239 15.23 6.36305C15.23 7.51371 16.1655 8.4465 17.3196 8.4465Z" fill="#0067FC"/>
<path id="Vector_19" d="M23.1158 14.7626C24.7372 14.7626 26.0516 13.4521 26.0516 11.8355C26.0516 10.2188 24.7372 8.90829 23.1158 8.90829C21.4944 8.90829 20.18 10.2188 20.18 11.8355C20.18 13.4521 21.4944 14.7626 23.1158 14.7626Z" fill="#0067FC"/>
<path id="Vector_20" d="M12.4229 2.70175C13.1712 2.70175 13.7778 2.09695 13.7778 1.35088C13.7778 0.604808 13.1712 0 12.4229 0C11.6746 0 11.0681 0.604808 11.0681 1.35088C11.0681 2.09695 11.6746 2.70175 12.4229 2.70175Z" fill="#0067FC"/>
<path id="Vector_21" d="M10.112 11.6523C11.266 11.6523 12.2016 10.7195 12.2016 9.56883C12.2016 8.41817 11.266 7.48538 10.112 7.48538C8.95794 7.48538 8.0224 8.41817 8.0224 9.56883C8.0224 10.7195 8.95794 11.6523 10.112 11.6523Z" fill="#0067FC"/>
<path id="Vector_22" d="M16.9836 19.4382C18.7541 19.4382 20.1894 18.0072 20.1894 16.2418C20.1894 14.4765 18.7541 13.0454 16.9836 13.0454C15.2131 13.0454 13.7778 14.4765 13.7778 16.2418C13.7778 18.0072 15.2131 19.4382 16.9836 19.4382Z" fill="#0067FC"/>
<path id="Vector_23" d="M4.77264 5.02783C5.52091 5.02783 6.1275 4.42303 6.1275 3.67696C6.1275 2.93089 5.52091 2.32608 4.77264 2.32608C4.02437 2.32608 3.41779 2.93089 3.41779 3.67696C3.41779 4.42303 4.02437 5.02783 4.77264 5.02783Z" fill="#0067FC"/>
<path id="Vector_24" d="M23.4423 28.0084C25.8466 28.0084 27.7957 26.065 27.7957 23.6677C27.7957 21.2705 25.8466 19.3271 23.4423 19.3271C21.038 19.3271 19.0889 21.2705 19.0889 23.6677C19.0889 26.065 21.038 28.0084 23.4423 28.0084Z" fill="#0067FC"/>
<path id="Vector_25" d="M31.4725 21.3495C33.5205 21.3495 35.1807 19.6941 35.1807 17.6522C35.1807 15.6102 33.5205 13.9549 31.4725 13.9549C29.4246 13.9549 27.7643 15.6102 27.7643 17.6522C27.7643 19.6941 29.4246 21.3495 31.4725 21.3495Z" fill="#0067FC"/>
<path id="Vector_26" d="M39.1935 13.7311C40.8149 13.7311 42.1293 12.4205 42.1293 10.8039C42.1293 9.18727 40.8149 7.87674 39.1935 7.87674C37.5721 7.87674 36.2577 9.18727 36.2577 10.8039C36.2577 12.4205 37.5721 13.7311 39.1935 13.7311Z" fill="#0067FC"/>
<path id="Vector_27" d="M45.6852 8.53259C46.9043 8.53259 47.8925 7.54723 47.8925 6.33174C47.8925 5.11624 46.9043 4.13089 45.6852 4.13089C44.4661 4.13089 43.4778 5.11624 43.4778 6.33174C43.4778 7.54723 44.4661 8.53259 45.6852 8.53259Z" fill="#0067FC"/>
<path id="Vector_28" d="M51.2773 3.8366C52.1808 3.8366 52.9132 3.10635 52.9132 2.20553C52.9132 1.30472 52.1808 0.574463 51.2773 0.574463C50.3738 0.574463 49.6414 1.30472 49.6414 2.20553C49.6414 3.10635 50.3738 3.8366 51.2773 3.8366Z" fill="#0067FC"/>
<path id="Vector_29" d="M61.3641 13.4665C62.2676 13.4665 63 12.7363 63 11.8354C63 10.9346 62.2676 10.2044 61.3641 10.2044C60.4607 10.2044 59.7283 10.9346 59.7283 11.8354C59.7283 12.7363 60.4607 13.4665 61.3641 13.4665Z" fill="#0067FC"/>
<path id="Vector_30" d="M38.8936 27.8597C41.2156 27.8597 43.0979 25.9829 43.0979 23.6677C43.0979 21.3526 41.2156 19.4758 38.8936 19.4758C36.5717 19.4758 34.6893 21.3526 34.6893 23.6677C34.6893 25.9829 36.5717 27.8597 38.8936 27.8597Z" fill="#0067FC"/>
<path id="Vector_31" d="M31.3391 49.2937C33.3871 49.2937 35.0473 47.6384 35.0473 45.5964C35.0473 43.5544 33.3871 41.8991 31.3391 41.8991C29.2911 41.8991 27.6309 43.5544 27.6309 45.5964C27.6309 47.6384 29.2911 49.2937 31.3391 49.2937Z" fill="#0067FC"/>
<path id="Vector_32" d="M45.4952 58.6387C46.6493 58.6387 47.5848 57.7059 47.5848 56.5553C47.5848 55.4046 46.6493 54.4718 45.4952 54.4718C44.3412 54.4718 43.4056 55.4046 43.4056 56.5553C43.4056 57.7059 44.3412 58.6387 45.4952 58.6387Z" fill="#0067FC"/>
<path id="Vector_33" d="M39.1935 54.8741C40.8149 54.8741 42.1293 53.5636 42.1293 51.9469C42.1293 50.3303 40.8149 49.0198 39.1935 49.0198C37.5721 49.0198 36.2577 50.3303 36.2577 51.9469C36.2577 53.5636 37.5721 54.8741 39.1935 54.8741Z" fill="#0067FC"/>
<path id="Vector_34" d="M51.0496 62.1826C51.7979 62.1826 52.4045 61.5778 52.4045 60.8317C52.4045 60.0856 51.7979 59.4808 51.0496 59.4808C50.3014 59.4808 49.6948 60.0856 49.6948 60.8317C49.6948 61.5778 50.3014 62.1826 51.0496 62.1826Z" fill="#0067FC"/>
<path id="Vector_35" d="M6.01598 19.0954C7.17002 19.0954 8.10557 18.1626 8.10557 17.012C8.10557 15.8613 7.17002 14.9285 6.01598 14.9285C4.86193 14.9285 3.92639 15.8613 3.92639 17.012C3.92639 18.1626 4.86193 19.0954 6.01598 19.0954Z" fill="#0067FC"/>
<path id="Vector_36" d="M11.0414 26.1363C12.6628 26.1363 13.9772 24.8257 13.9772 23.2091C13.9772 21.5925 12.6628 20.282 11.0414 20.282C9.41998 20.282 8.10559 21.5925 8.10559 23.2091C8.10559 24.8257 9.41998 26.1363 11.0414 26.1363Z" fill="#0067FC"/>
<path id="Vector_37" d="M1.86194 13.1863C2.6102 13.1863 3.21679 12.5815 3.21679 11.8354C3.21679 11.0894 2.6102 10.4846 1.86194 10.4846C1.11367 10.4846 0.50708 11.0894 0.50708 11.8354C0.50708 12.5815 1.11367 13.1863 1.86194 13.1863Z" fill="#0067FC"/>
<path id="Vector_38" d="M16.9836 35.2105C19.0316 35.2105 20.6918 33.5551 20.6918 31.5132C20.6918 29.4712 19.0316 27.8159 16.9836 27.8159C14.9356 27.8159 13.2754 29.4712 13.2754 31.5132C13.2754 33.5551 14.9356 35.2105 16.9836 35.2105Z" fill="#0067FC"/>
<path id="Vector_39" d="M22.4799 43.4457C24.8019 43.4457 26.6842 41.5689 26.6842 39.2537C26.6842 36.9386 24.8019 35.0618 22.4799 35.0618C20.158 35.0618 18.2756 36.9386 18.2756 39.2537C18.2756 41.5689 20.158 43.4457 22.4799 43.4457Z" fill="#0067FC"/>
<path id="Vector_40" d="M46.5502 19.9986C48.4568 19.9986 50.0025 18.4575 50.0025 16.5564C50.0025 14.6554 48.4568 13.1143 46.5502 13.1143C44.6435 13.1143 43.0979 14.6554 43.0979 16.5564C43.0979 18.4575 44.6435 19.9986 46.5502 19.9986Z" fill="#0067FC"/>
<path id="Vector_41" d="M16.4262 49.6741C18.3329 49.6741 19.8785 48.133 19.8785 46.2319C19.8785 44.3309 18.3329 42.7898 16.4262 42.7898C14.5196 42.7898 12.9739 44.3309 12.9739 46.2319C12.9739 48.133 14.5196 49.6741 16.4262 49.6741Z" fill="#0067FC"/>
<path id="Vector_42" d="M53.18 12.6948C54.6514 12.6948 55.8442 11.5055 55.8442 10.0384C55.8442 8.57137 54.6514 7.38208 53.18 7.38208C51.7087 7.38208 50.5159 8.57137 50.5159 10.0384C50.5159 11.5055 51.7087 12.6948 53.18 12.6948Z" fill="#0067FC"/>
<path id="Vector_43" d="M9.75873 55.4674C11.2301 55.4674 12.4229 54.2781 12.4229 52.811C12.4229 51.3439 11.2301 50.1546 9.75873 50.1546C8.28734 50.1546 7.09454 51.3439 7.09454 52.811C7.09454 54.2781 8.28734 55.4674 9.75873 55.4674Z" fill="#0067FC"/>
<path id="Vector_44" d="M58.7941 6.58376C59.7167 6.58376 60.4645 5.83809 60.4645 4.91825C60.4645 3.99842 59.7167 3.25275 58.7941 3.25275C57.8716 3.25275 57.1237 3.99842 57.1237 4.91825C57.1237 5.83809 57.8716 6.58376 58.7941 6.58376Z" fill="#0067FC"/>
<path id="Vector_45" d="M4.44135 60.0851C5.36389 60.0851 6.11176 59.3394 6.11176 58.4196C6.11176 57.4997 5.36389 56.7541 4.44135 56.7541C3.5188 56.7541 2.77094 57.4997 2.77094 58.4196C2.77094 59.3394 3.5188 60.0851 4.44135 60.0851Z" fill="#0067FC"/>
</g>
</svg>
