<svg width="62" height="62" viewBox="0 0 62 62" fill="none" xmlns="http://www.w3.org/2000/svg">
<g id="Frame" clip-path="url(#clip0_223_1959)">
<g id="Group">
<path id="Vector" d="M61.6407 29.9052L56.3722 22.7552L56.4327 13.873C56.4355 13.4788 56.3119 13.0942 56.0801 12.7754C55.8483 12.4566 55.5205 12.2205 55.1447 12.1016L46.6772 9.42004L41.5127 2.19257C41.0411 1.53202 40.1944 1.25964 39.4268 1.51495L31 4.32789L22.5731 1.51422C21.8048 1.25879 20.9582 1.53117 20.4872 2.19184L15.3235 9.41859L6.85531 12.1016C6.47958 12.2203 6.15179 12.4563 5.91998 12.775C5.68818 13.0937 5.56458 13.4782 5.56729 13.8722L5.62784 22.7545L0.35923 29.9044C0.125843 30.2218 -3.05176e-05 30.6055 -3.05176e-05 30.9994C-3.05176e-05 31.3934 0.125843 31.777 0.35923 32.0944L5.62772 39.2444L5.56717 48.1266C5.56443 48.5207 5.68802 48.9054 5.91981 49.2241C6.15161 49.5429 6.47941 49.7791 6.85519 49.898L15.3226 52.5795L20.4871 59.807C20.7166 60.1282 21.043 60.3673 21.4185 60.4892C21.7939 60.6112 22.1985 60.6096 22.573 60.4846L30.9998 57.6717L39.4267 60.4853C39.8011 60.6103 40.2058 60.6119 40.5812 60.4899C40.9566 60.368 41.2831 60.1289 41.5126 59.8077L46.6763 52.581L55.1447 49.8981C55.5204 49.7793 55.8482 49.5433 56.08 49.2247C56.3118 48.906 56.4354 48.5215 56.4327 48.1274L56.3722 39.2445L61.6407 32.0945C61.874 31.7772 61.9999 31.3937 61.9999 30.9998C61.9999 30.606 61.874 30.2224 61.6407 29.9052ZM53.0366 37.549C52.8005 37.8697 52.6744 38.2581 52.6772 38.6562L52.7325 46.7908L44.9751 49.248C44.5941 49.3681 44.2627 49.6091 44.031 49.9344L39.3028 56.553L31.5844 53.9763C31.2051 53.8494 30.7947 53.8494 30.4153 53.9763L22.697 56.553L17.9679 49.9337C17.7357 49.6088 17.4045 49.3677 17.0239 49.2465L9.26714 46.7901L9.32248 38.6555C9.3252 38.2573 9.19911 37.8689 8.96302 37.5483L4.13683 30.9998L8.96254 24.4506C9.19864 24.13 9.32473 23.7416 9.322 23.3434L9.26665 15.2088L17.0241 12.7517C17.405 12.6316 17.7365 12.3906 17.9682 12.0653L22.6964 5.44672L30.4147 8.02338C30.7941 8.15031 31.2045 8.15031 31.5838 8.02338L39.3022 5.44672L44.0312 12.066C44.2635 12.3909 44.5947 12.632 44.9753 12.7532L52.732 15.2096L52.6767 23.3442C52.674 23.7423 52.8001 24.1307 53.0362 24.4514L57.8633 30.9998L53.0366 37.549Z" fill="#1C69FF"/>
<path id="Vector_2" d="M40.0749 22.7753L27.5405 35.3104L21.9258 29.6957C21.2047 28.9746 20.037 28.9746 19.3165 29.6957C18.5961 30.4168 18.5954 31.5844 19.3165 32.3049L26.2363 39.2246C26.5964 39.5848 27.0688 39.7649 27.5412 39.7649C28.0137 39.7649 28.4853 39.5848 28.8462 39.2246L42.6856 25.3853C43.4067 24.6642 43.4067 23.4965 42.6856 22.776C41.9645 22.0555 40.7952 22.0549 40.0749 22.7753Z" fill="#1C69FF"/>
</g>
</g>
<defs>
<clipPath id="clip0_223_1959">
<rect width="62" height="62" fill="white"/>
</clipPath>
</defs>
</svg>
