<svg width="231" height="217" viewBox="0 0 231 217" fill="none" xmlns="http://www.w3.org/2000/svg">
<g id="Layer_1" clip-path="url(#clip0_173_384)">
<g id="Group">
<g id="Group_2">
<path id="Vector" d="M229.887 51.4509L65.6683 79.9662L67.2965 128.22L229.887 51.4509Z" fill="white"/>
<path id="Vector_2" d="M67.0727 129.038C66.9989 129.017 66.923 128.987 66.8551 128.945C66.6114 128.794 66.4618 128.538 66.4519 128.251L64.828 79.9979C64.8123 79.5777 65.1146 79.2073 65.5262 79.1378L229.742 50.6169C230.153 50.5474 230.563 50.7905 230.691 51.1946C230.819 51.5987 230.63 52.0328 230.248 52.2134L67.6566 128.987C67.4731 129.077 67.264 129.09 67.0727 129.038ZM66.5391 80.6768L68.0944 126.911L223.887 53.3492L66.5391 80.6768Z" fill="#1D1D1D"/>
</g>
<g id="Group_3">
<path id="Vector_3" d="M229.887 51.4512L65.6683 79.9665L40.9869 74.9915L30.288 57.7917L229.887 51.4512Z" fill="white"/>
<path id="Vector_4" d="M40.7631 75.8085C40.5588 75.7526 40.3803 75.6196 40.2706 75.44L29.5674 58.239C29.4092 57.9808 29.3989 57.6602 29.5415 57.3956C29.684 57.1309 29.9558 56.9577 30.2609 56.9525L229.861 50.6076C230.303 50.5978 230.685 50.9267 230.728 51.3682C230.775 51.8109 230.468 52.213 230.033 52.2852L65.8137 80.8005C65.7105 80.819 65.6034 80.8177 65.5022 80.7947L40.8208 75.8197C40.8208 75.8197 40.7817 75.8089 40.7643 75.8042L40.7631 75.8085ZM31.7745 58.5912L41.5067 74.2367L65.6788 79.1096L217.884 52.6772L31.78 58.5881L31.7745 58.5912Z" fill="#1D1D1D"/>
</g>
<g id="Group_4">
<path id="Vector_5" d="M229.887 51.4512L88.8811 103.593L67.2965 128.221L229.887 51.4512Z" fill="#D1EBFF"/>
<path id="Vector_6" d="M67.0728 129.038C66.8989 128.99 66.7362 128.885 66.6193 128.731C66.3794 128.413 66.3937 127.968 66.6584 127.667L88.2474 103.041C88.3416 102.936 88.4571 102.856 88.5915 102.808L229.596 50.6563C230.021 50.5018 230.493 50.7059 230.669 51.123C230.844 51.5402 230.661 52.0226 230.253 52.2146L67.6566 128.987C67.4687 129.076 67.2596 129.089 67.0728 129.038ZM89.3756 104.313L70.607 125.721L211.962 58.9797L89.3768 104.308L89.3756 104.313Z" fill="#1D1D1D"/>
</g>
<g id="Group_5">
<path id="Vector_7" d="M229.887 51.4512L88.8811 103.593L101.721 128.874L122.039 143.284L229.887 51.4512Z" fill="white"/>
<path id="Vector_8" d="M121.811 144.1C121.719 144.075 121.628 144.031 121.545 143.976L101.234 129.563C101.12 129.485 101.032 129.377 100.967 129.256L88.127 103.976C88.0182 103.759 88.0074 103.508 88.0922 103.284C88.1813 103.061 88.3614 102.881 88.5852 102.797L229.596 50.6564C229.976 50.5129 230.411 50.6648 230.617 51.0203C230.825 51.3715 230.747 51.8268 230.436 52.092L122.582 143.928C122.363 144.111 122.076 144.172 121.811 144.1ZM102.381 128.307L121.989 142.219L225.713 53.8964L90.0624 104.057L102.381 128.307Z" fill="#1D1D1D"/>
</g>
</g>
<g id="Vector_9" filter="url(#filter0_f_173_384)">
<path d="M47.2191 160.839L70.4331 184.462L150.732 149.885L47.2191 160.839Z" fill="#D1EBFF"/>
</g>
</g>
<defs>
<filter id="filter0_f_173_384" x="37.2191" y="139.885" width="123.513" height="54.5762" filterUnits="userSpaceOnUse" color-interpolation-filters="sRGB">
<feFlood flood-opacity="0" result="BackgroundImageFix"/>
<feBlend mode="normal" in="SourceGraphic" in2="BackgroundImageFix" result="shape"/>
<feGaussianBlur stdDeviation="5" result="effect1_foregroundBlur_173_384"/>
</filter>
<clipPath id="clip0_173_384">
<rect width="192.529" height="171.254" fill="white" transform="translate(45.2379) rotate(15.3168)"/>
</clipPath>
</defs>
</svg>
