<svg width="246" height="236" viewBox="0 0 246 236" fill="none" xmlns="http://www.w3.org/2000/svg">
<g id="Group">
<g id="Group_2">
<g id="Group_3">
<path id="Vector" d="M145.509 181.583L71.3505 146.435C71.3284 146.424 71.3338 146.392 71.357 146.388L127.969 138.814C127.981 138.812 127.991 138.819 127.995 138.83L145.542 181.551C145.549 181.573 145.529 181.592 145.507 181.583L145.509 181.583Z" fill="#B9D1FF"/>
<path id="Vector_2" d="M145.74 183.124L144.955 182.749L69.9476 147.198L70.1793 145.287L71.1504 145.111L128.778 137.403L129.188 138.327L147.088 181.906L145.742 183.123L145.74 183.124ZM75.7734 147.098L143.102 179.01L127.17 140.222L75.7734 147.098Z" fill="black"/>
</g>
<g id="Group_4">
<path id="Vector_3" d="M127.993 138.824L145.531 181.526C145.539 181.55 145.575 181.546 145.578 181.52L154.512 121.735C154.512 121.735 154.512 121.729 154.511 121.725L149.689 102.367C149.689 102.367 149.679 102.352 149.67 102.349L2.08507 64.3658C2.0606 64.3598 2.04238 64.3904 2.06262 64.408L72.9653 131.106C72.9653 131.106 72.9733 131.112 72.9794 131.112L127.976 138.809C127.976 138.809 127.993 138.816 127.996 138.825L127.993 138.824Z" fill="#B9D1FF"/>
<path id="Vector_4" d="M144.721 182.939L144.329 182.003L127.075 139.989L72.4273 132.34L72.1244 132.09L0.442045 64.6596L1.41195 62.874L2.41162 63.1155L150.696 101.278L150.928 101.989L155.665 121.011L156.061 121.348L155.769 122.075L146.712 182.691L144.721 182.939ZM73.5664 129.896L128.83 137.624L129.193 138.333L144.981 176.781L153.198 121.793L148.619 103.411L6.54072 66.8477L73.564 129.895L73.5664 129.896Z" fill="black"/>
</g>
<g id="Group_5">
<path id="Vector_5" d="M2.03457 64.4217L66.0833 180.525C66.0895 180.537 66.1072 180.541 66.1188 180.533L127.954 138.833C127.969 138.824 127.968 138.802 127.952 138.791L2.0699 64.3873C2.04723 64.3746 2.02288 64.3991 2.03641 64.4211L2.03457 64.4217Z" fill="white"/>
<path id="Vector_6" d="M66.3851 181.913L65.2797 181.679L64.9783 181.191L0.424772 64.1495L1.8901 62.7675L2.76068 63.2974L129.191 138.022L129.312 139.425L128.725 139.874L66.3857 181.915L66.3851 181.913ZM5.41136 67.8654L66.5457 178.686L125.572 138.885L5.41136 67.8654Z" fill="black"/>
</g>
<g id="Group_6">
<path id="Vector_7" d="M2.18244 64.4123L154.502 121.724C154.502 121.724 154.518 121.727 154.524 121.722L205.187 88.5151C205.207 88.5022 205.199 88.4723 205.175 88.4699L2.19327 64.3659C2.1633 64.3617 2.1549 64.4033 2.18061 64.4129L2.18244 64.4123Z" fill="white"/>
<path id="Vector_8" d="M154.664 123.175L154.016 122.922L1.74712 65.6305L0.680981 65.2707L1.13621 63.0001L2.30518 63.0784L206.222 87.2929L206.67 89.0728L205.894 89.6002L154.666 123.176L154.664 123.175ZM12.4111 66.8803L154.361 120.289L201.565 89.3412L12.4111 66.8803Z" fill="black"/>
</g>
</g>
<g id="Group_7">
<path id="Vector_9" d="M205.418 168.068L202.832 168.046C202.97 153.196 194.31 139.656 180.775 133.549L171.679 129.445L172.743 127.091L181.839 131.195C196.311 137.721 205.566 152.197 205.419 168.07L205.418 168.068Z" fill="black"/>
</g>
<g id="Group_8">
<path id="Vector_10" d="M216.1 181.925L214.282 181.124C218.889 170.689 216.891 158.506 209.197 150.088L204.025 144.43L205.491 143.092L210.662 148.75C218.89 157.749 221.024 170.772 216.1 181.926L216.1 181.925Z" fill="black"/>
</g>
<g id="Group_9">
<path id="Vector_11" d="M207.993 97.7689L207.761 100.343L220.356 101.476L220.588 98.9017L207.993 97.7689Z" fill="black"/>
<path id="Vector_12" d="M202.853 99.8795L180.05 97.8346L180.281 95.2576L203.085 97.3049L202.853 99.8795Z" fill="black"/>
</g>
</g>
</svg>
