<svg width="238" height="225" viewBox="0 0 238 225" fill="none" xmlns="http://www.w3.org/2000/svg">
<g id="Group">
<g id="Group_2">
<g id="Group_3">
<path id="Vector" d="M104.272 180.591L175.535 134.229C175.556 134.215 175.546 134.182 175.522 134.182L116.352 134.252C116.339 134.252 116.33 134.26 116.327 134.272L104.235 180.564C104.23 180.587 104.253 180.604 104.274 180.592L104.272 180.591Z" fill="#B9D1FF"/>
<path id="Vector_2" d="M104.249 182.206L105.003 181.712L177.081 134.818L176.579 132.888L175.557 132.843L115.326 132.916L115.033 133.921L102.696 181.142L104.247 182.205L104.249 182.206ZM171.086 135.523L106.387 177.617L117.368 135.587L171.086 135.523Z" fill="black"/>
</g>
<g id="Group_4">
<path id="Vector_3" d="M116.328 134.266L104.242 180.536C104.237 180.562 104.2 180.563 104.193 180.537L86.7346 120.396C86.7346 120.396 86.7337 120.39 86.7345 120.386L89.0022 99.8443C89.0022 99.8443 89.0096 99.8274 89.0186 99.823L235.272 40.373C235.296 40.3634 235.319 40.3923 235.3 40.4132L171.753 118.716C171.753 118.716 171.746 118.722 171.739 118.723L116.344 134.248C116.344 134.248 116.328 134.257 116.326 134.267L116.328 134.266Z" fill="#B9D1FF"/>
<path id="Vector_4" d="M105.269 181.875L105.542 180.86L117.433 135.334L172.476 119.908L172.753 119.609L236.999 40.4469L235.756 38.7481L234.763 39.1346L87.817 98.8661L87.6774 99.6281L85.4504 119.813L85.0911 120.214L85.4908 120.92L103.191 181.896L105.269 181.875ZM170.968 117.556L115.303 133.149L115.029 133.928L104.149 175.588L88.0922 120.274L90.2447 100.768L231.041 43.5386L170.97 117.555L170.968 117.556Z" fill="black"/>
</g>
<g id="Group_5">
<path id="Vector_5" d="M235.331 40.4245L185.668 168.498C185.663 168.511 185.645 168.518 185.632 168.511L116.371 134.271C116.354 134.264 116.352 134.241 116.367 134.227L235.29 40.3941C235.312 40.3779 235.34 40.3997 235.329 40.4241L235.331 40.4245Z" fill="white"/>
<path id="Vector_6" d="M185.55 169.965L186.653 169.571L186.894 169.028L236.946 39.9212L235.25 38.7054L234.43 39.37L114.987 133.608L115.058 135.065L115.722 135.445L185.55 169.967L185.55 169.965ZM232.342 44.4272L184.938 166.673L118.823 133.993L232.342 44.4272Z" fill="black"/>
</g>
<g id="Group_6">
<path id="Vector_7" d="M235.178 40.4347L86.7433 120.384C86.7433 120.384 86.728 120.389 86.7205 120.386L30.1059 93.3157C30.0835 93.3052 30.0876 93.2734 30.1111 93.2677L235.161 40.3885C235.191 40.3801 235.205 40.4216 235.18 40.4351L235.178 40.4347Z" fill="white"/>
<path id="Vector_8" d="M86.7785 121.896L87.4091 121.547L235.794 41.6247L236.839 41.1075L236.057 38.8395L234.867 39.082L28.8732 92.2041L28.6598 94.0935L29.5303 94.5274L86.7762 121.897L86.7785 121.896ZM225.019 44.3858L86.69 118.892L33.9388 93.6615L225.019 44.3858Z" fill="black"/>
</g>
</g>
<g id="Group_7">
<path id="Vector_9" d="M40.8941 175.021L43.5462 174.64C41.3463 159.413 48.3601 144.312 61.409 136.166L70.1787 130.692L68.7604 128.423L59.9907 133.897C46.0376 142.603 38.5422 158.747 40.8937 175.023L40.8941 175.021Z" fill="black"/>
</g>
<g id="Group_8">
<path id="Vector_10" d="M31.848 190.727L33.6034 189.653C27.4274 179.578 27.7899 166.794 34.5227 157.085L39.0475 150.559L37.3579 149.389L32.833 155.914C25.6326 166.294 25.2469 179.96 31.8483 190.728L31.848 190.727Z" fill="black"/>
</g>
<g id="Group_9">
<path id="Vector_11" d="M28.507 103.204L29.1018 105.814L16.3284 108.723L15.7336 106.113L28.507 103.204Z" fill="black"/>
<path id="Vector_12" d="M34.0764 104.659L57.2041 99.3991L56.6098 96.7854L33.481 102.048L34.0764 104.659Z" fill="black"/>
</g>
</g>
</svg>
