<svg width="58" height="56" viewBox="0 0 58 56" fill="none" xmlns="http://www.w3.org/2000/svg">
<g id="Frame">
<g id="Group">
<path id="Vector" d="M31.8243 42.7018H8.97088C8.0594 42.7008 7.18553 42.3447 6.54102 41.7115C5.89651 41.0783 5.53401 40.2197 5.53306 39.3243V17.92H48.6928V30.0668C48.6928 30.4845 48.8617 30.8851 49.1623 31.1805C49.4629 31.4758 49.8707 31.6418 50.2959 31.6418C50.7211 31.6418 51.1288 31.4758 51.4295 31.1805C51.7301 30.8851 51.899 30.4845 51.899 30.0668V10.1868C51.8971 8.46077 51.1984 6.806 49.9561 5.58554C48.7139 4.36508 47.0296 3.67861 45.2728 3.67676H8.95306C7.19625 3.67861 5.51193 4.36508 4.26968 5.58554C3.02743 6.806 2.3287 8.46077 2.32681 10.1868V39.3243C2.3287 41.0549 3.0293 42.7141 4.2749 43.9379C5.52049 45.1616 7.20934 45.8499 8.97088 45.8518H31.8243C32.2495 45.8518 32.6573 45.6858 32.9579 45.3905C33.2585 45.0951 33.4274 44.6945 33.4274 44.2768C33.4274 43.859 33.2585 43.4584 32.9579 43.1631C32.6573 42.8677 32.2495 42.7018 31.8243 42.7018ZM8.95306 6.82676H45.2728C47.1591 6.82676 48.6928 8.33351 48.6928 10.1868V14.77H5.53306V10.1868C5.53306 8.33526 7.06672 6.82676 8.95306 6.82676Z" fill="#1C69FF"/>
<path id="Vector_2" d="M11.0371 12.1939C11.8281 12.1939 12.4693 11.5639 12.4693 10.7869C12.4693 10.0098 11.8281 9.37988 11.0371 9.37988C10.2462 9.37988 9.60501 10.0098 9.60501 10.7869C9.60501 11.5639 10.2462 12.1939 11.0371 12.1939Z" fill="#1C69FF"/>
<path id="Vector_3" d="M16.0816 12.1939C16.8726 12.1939 17.5138 11.5639 17.5138 10.7869C17.5138 10.0098 16.8726 9.37988 16.0816 9.37988C15.2907 9.37988 14.6495 10.0098 14.6495 10.7869C14.6495 11.5639 15.2907 12.1939 16.0816 12.1939Z" fill="#1C69FF"/>
<path id="Vector_4" d="M21.1261 12.1939C21.9171 12.1939 22.5582 11.5639 22.5582 10.7869C22.5582 10.0098 21.9171 9.37988 21.1261 9.37988C20.3352 9.37988 19.694 10.0098 19.694 10.7869C19.694 11.5639 20.3352 12.1939 21.1261 12.1939Z" fill="#1C69FF"/>
<path id="Vector_5" d="M53.137 35.6687L37.779 31.0784C37.224 30.9131 36.6337 30.8987 36.071 31.0368C35.5083 31.1748 34.9942 31.4602 34.5835 31.8624C34.1722 32.2652 33.8805 32.7705 33.7396 33.324C33.5986 33.8774 33.6139 34.4581 33.7837 35.0037L38.4559 50.0939C38.6466 50.7353 39.0433 51.2988 39.5868 51.7003C40.1304 52.1018 40.7915 52.3198 41.4715 52.3217H41.5214C42.1931 52.3285 42.8494 52.1244 43.3948 51.7391C43.9401 51.3538 44.3459 50.8074 44.5531 50.1797L46.7369 43.8044L53.2296 41.6554C53.8765 41.4492 54.4382 41.0429 54.8308 40.4973C55.2234 39.9516 55.4259 39.2959 55.4081 38.6279C55.4054 37.9599 55.1828 37.3107 54.7734 36.7773C54.364 36.2439 53.7899 35.855 53.137 35.6687ZM45.7127 40.8224C45.246 40.9788 44.8221 41.2382 44.4735 41.5807C44.1248 41.9232 43.8608 42.3397 43.7017 42.7982L41.5232 49.1769L36.8545 34.0954L52.2054 38.6752L45.7127 40.8224Z" fill="#1C69FF"/>
</g>
</g>
</svg>
