<svg width="48" height="47" viewBox="0 0 48 47" fill="none" xmlns="http://www.w3.org/2000/svg">
<g id="Frame" clip-path="url(#clip0_37_15)">
<g id="Group">
<path id="Vector" d="M1.3127 21.9255L12.8062 27.6536C13.0242 27.762 13.2657 27.8146 13.509 27.8067C13.7523 27.7988 13.9899 27.7308 14.2005 27.6086L24.4308 21.6611L18.2386 27.1484C18.0828 27.2864 17.9582 27.4558 17.8727 27.6455C17.7873 27.8352 17.7432 28.0409 17.7431 28.249V41.6146C17.7431 43.0246 19.5428 43.618 20.3869 42.4978L25.3552 35.8923L37.6417 42.8895C37.8437 43.0043 38.07 43.0696 38.3021 43.08C38.5342 43.0904 38.7654 43.0456 38.9768 42.9492C39.1882 42.8529 39.3738 42.7078 39.5182 42.5258C39.6626 42.3439 39.7618 42.1302 39.8077 41.9025L47.4706 3.71497C47.5224 3.45654 47.5037 3.18895 47.4164 2.94026C47.3291 2.69156 47.1766 2.47092 46.9747 2.30149C46.7728 2.13205 46.5291 2.02006 46.269 1.97726C46.0089 1.93446 45.7421 1.96242 45.4966 2.05822L1.43412 19.2426C1.16917 19.3459 0.939912 19.524 0.774192 19.7551C0.608472 19.9862 0.513413 20.2605 0.500556 20.5446C0.487699 20.8287 0.557597 21.1104 0.701764 21.3555C0.845931 21.6007 1.05817 21.7987 1.3127 21.9255ZM44.0631 5.77122L37.3284 39.3312L25.6861 32.7003C25.3753 32.5241 25.0111 32.4668 24.6613 32.5393C24.3114 32.6117 23.9999 32.8088 23.7846 33.0939L20.6806 37.2201V28.9089L37.4263 14.0726C38.7521 12.8996 37.2285 10.8139 35.7147 11.703L13.4093 24.6711L5.59166 20.776L44.0631 5.77122Z" fill="#1C69FF"/>
</g>
</g>
<defs>
<clipPath id="clip0_37_15">
<rect width="47" height="47" fill="white" transform="translate(0.5)"/>
</clipPath>
</defs>
</svg>
