<svg width="146" height="53" viewBox="0 0 146 53" fill="none" xmlns="http://www.w3.org/2000/svg">
<path d="M85.8298 6.9L80.1098 14.5V21H77.5298V14.5L71.8298 6.9H74.7298L78.8098 12.44L82.9098 6.9H85.8298ZM93.3683 16.56H86.7083C86.7883 17.4667 87.0616 18.14 87.5283 18.58C87.9949 19.02 88.6616 19.24 89.5283 19.24C90.6083 19.24 91.5949 18.8933 92.4883 18.2L93.2083 19.92C92.7549 20.2933 92.1816 20.5933 91.4883 20.82C90.8083 21.0467 90.1216 21.16 89.4283 21.16C87.8283 21.16 86.5616 20.7067 85.6283 19.8C84.7083 18.8933 84.2483 17.6533 84.2483 16.08C84.2483 15.08 84.4483 14.1933 84.8483 13.42C85.2483 12.6467 85.8083 12.0467 86.5283 11.62C87.2616 11.1933 88.0883 10.98 89.0083 10.98C90.3549 10.98 91.4149 11.4133 92.1883 12.28C92.9749 13.1467 93.3683 14.34 93.3683 15.86V16.56ZM89.0683 12.74C88.4016 12.74 87.8616 12.9533 87.4483 13.38C87.0483 13.8067 86.8016 14.42 86.7083 15.22H91.2283C91.2016 14.4067 91.0016 13.7933 90.6283 13.38C90.2549 12.9533 89.7349 12.74 89.0683 12.74ZM107.033 10.98C108.14 10.98 108.967 11.3133 109.513 11.98C110.06 12.6333 110.333 13.64 110.333 15V21H107.833V15.1C107.833 14.3533 107.707 13.8133 107.453 13.48C107.2 13.1333 106.793 12.96 106.233 12.96C105.567 12.96 105.047 13.1867 104.673 13.64C104.3 14.0933 104.113 14.7267 104.113 15.54V21H101.613V15.1C101.613 14.3533 101.487 13.8133 101.233 13.48C100.993 13.1333 100.587 12.96 100.013 12.96C99.3599 12.96 98.8466 13.1867 98.4733 13.64C98.0999 14.0933 97.9133 14.7267 97.9133 15.54V21H95.4133V11.22H97.8533V12.6C98.1466 12.0667 98.5533 11.6667 99.0733 11.4C99.5933 11.12 100.187 10.98 100.853 10.98C102.333 10.98 103.313 11.5933 103.793 12.82C104.1 12.2467 104.54 11.8 105.113 11.48C105.687 11.1467 106.327 10.98 107.033 10.98ZM117.074 10.98C118.448 10.98 119.468 11.3133 120.134 11.98C120.801 12.6467 121.134 13.6733 121.134 15.06V21H118.754V19.5C118.528 20.02 118.168 20.4267 117.674 20.72C117.194 21.0133 116.634 21.16 115.994 21.16C115.341 21.16 114.748 21.0267 114.214 20.76C113.681 20.4933 113.261 20.1267 112.954 19.66C112.648 19.1933 112.494 18.6733 112.494 18.1C112.494 17.38 112.674 16.8133 113.034 16.4C113.408 15.9867 114.008 15.6867 114.834 15.5C115.661 15.3133 116.801 15.22 118.254 15.22H118.754V14.76C118.754 14.0933 118.608 13.6133 118.314 13.32C118.034 13.0267 117.561 12.88 116.894 12.88C116.374 12.88 115.828 12.9733 115.254 13.16C114.694 13.3333 114.141 13.58 113.594 13.9L112.894 12.18C113.441 11.8333 114.101 11.5467 114.874 11.32C115.648 11.0933 116.381 10.98 117.074 10.98ZM116.494 19.36C117.161 19.36 117.701 19.14 118.114 18.7C118.541 18.2467 118.754 17.6667 118.754 16.96V16.54H118.394C117.501 16.54 116.808 16.58 116.314 16.66C115.821 16.74 115.468 16.88 115.254 17.08C115.041 17.28 114.934 17.5533 114.934 17.9C114.934 18.3267 115.081 18.68 115.374 18.96C115.668 19.2267 116.041 19.36 116.494 19.36ZM129.355 10.98C130.528 10.98 131.402 11.3133 131.975 11.98C132.548 12.6467 132.835 13.6533 132.835 15V21H130.335V15.14C130.335 14.38 130.188 13.8267 129.895 13.48C129.615 13.1333 129.168 12.96 128.555 12.96C127.835 12.96 127.255 13.1867 126.815 13.64C126.388 14.0933 126.175 14.7 126.175 15.46V21H123.675V11.22H126.115V12.68C126.448 12.1333 126.895 11.7133 127.455 11.42C128.015 11.1267 128.648 10.98 129.355 10.98ZM139.834 21.16C138.834 21.16 137.954 20.9533 137.194 20.54C136.448 20.1267 135.868 19.5333 135.454 18.76C135.041 17.9867 134.834 17.0867 134.834 16.06C134.834 15.0333 135.041 14.14 135.454 13.38C135.868 12.6067 136.448 12.0133 137.194 11.6C137.954 11.1867 138.834 10.98 139.834 10.98C140.834 10.98 141.708 11.1867 142.454 11.6C143.214 12.0133 143.794 12.6067 144.194 13.38C144.608 14.14 144.814 15.0333 144.814 16.06C144.814 17.0867 144.608 17.9867 144.194 18.76C143.794 19.5333 143.214 20.1267 142.454 20.54C141.708 20.9533 140.834 21.16 139.834 21.16ZM139.814 19.22C140.628 19.22 141.248 18.9533 141.674 18.42C142.101 17.8867 142.314 17.1 142.314 16.06C142.314 15.0333 142.101 14.2533 141.674 13.72C141.248 13.1733 140.634 12.9 139.834 12.9C139.034 12.9 138.414 13.1733 137.974 13.72C137.548 14.2533 137.334 15.0333 137.334 16.06C137.334 17.1 137.548 17.8867 137.974 18.42C138.401 18.9533 139.014 19.22 139.814 19.22ZM83.5898 32.9H86.0098V47H84.0698L76.5098 37.16V47H74.1098V32.9H76.0298L83.5898 42.72V32.9ZM89.0513 47V32.9H98.2913V34.96H91.5913V38.8H97.8913V40.86H91.5913V47H89.0513ZM103.934 47V35.02H99.3338V32.9H111.114V35.02H106.514V47H103.934Z" fill="white"/>
<circle cx="26.5" cy="26.5" r="26.5" fill="#EF8D47"/>
<path d="M36.1 16.375L28.05 26.025L27.425 34H23.525L24.15 26.025L17.625 16.375H21.975L26.3 22.875L31.625 16.375H36.1Z" fill="white"/>
</svg>
