<svg width="218" height="68" viewBox="0 0 218 68" fill="none" xmlns="http://www.w3.org/2000/svg">
<path d="M108.737 8.17693L101.506 17.7845V26.0015H98.2449V17.7845L91.0392 8.17693H94.7053L99.863 15.1803L105.046 8.17693H108.737ZM118.267 20.3886H109.848C109.949 21.5348 110.295 22.386 110.884 22.9422C111.474 23.4984 112.317 23.7766 113.413 23.7766C114.778 23.7766 116.025 23.3383 117.155 22.4618L118.065 24.6362C117.492 25.1081 116.767 25.4874 115.89 25.7739C115.031 26.0605 114.163 26.2037 113.286 26.2037C111.264 26.2037 109.662 25.6306 108.483 24.4845C107.32 23.3383 106.738 21.7708 106.738 19.7818C106.738 18.5177 106.991 17.3968 107.497 16.4192C108.002 15.4416 108.71 14.6831 109.62 14.1437C110.547 13.6044 111.592 13.3347 112.755 13.3347C114.458 13.3347 115.798 13.8825 116.775 14.9781C117.77 16.0737 118.267 17.5822 118.267 19.5037V20.3886ZM112.831 15.5596C111.988 15.5596 111.306 15.8293 110.783 16.3686C110.278 16.908 109.966 17.6834 109.848 18.6947H115.562C115.528 17.6665 115.275 16.8911 114.803 16.3686C114.331 15.8293 113.674 15.5596 112.831 15.5596ZM135.542 13.3347C136.941 13.3347 137.986 13.7561 138.677 14.5988C139.368 15.4247 139.713 16.6973 139.713 18.4166V26.0015H136.553V18.543C136.553 17.5991 136.393 16.9164 136.073 16.495C135.752 16.0568 135.238 15.8377 134.53 15.8377C133.688 15.8377 133.03 16.1242 132.558 16.6973C132.086 17.2704 131.85 18.071 131.85 19.0992V26.0015H128.69V18.543C128.69 17.5991 128.53 16.9164 128.21 16.495C127.906 16.0568 127.392 15.8377 126.667 15.8377C125.841 15.8377 125.193 16.1242 124.721 16.6973C124.249 17.2704 124.013 18.071 124.013 19.0992V26.0015H120.852V13.6381H123.937V15.3826C124.308 14.7084 124.822 14.2027 125.479 13.8656C126.136 13.5117 126.886 13.3347 127.729 13.3347C129.6 13.3347 130.839 14.11 131.446 15.6607C131.834 14.9359 132.39 14.3713 133.115 13.9667C133.839 13.5454 134.648 13.3347 135.542 13.3347ZM148.235 13.3347C149.971 13.3347 151.261 13.7561 152.103 14.5988C152.946 15.4416 153.367 16.7395 153.367 18.4924V26.0015H150.359V24.1052C150.072 24.7626 149.617 25.2767 148.993 25.6475C148.387 26.0183 147.679 26.2037 146.87 26.2037C146.044 26.2037 145.294 26.0352 144.619 25.6981C143.945 25.361 143.414 24.8974 143.027 24.3075C142.639 23.7176 142.445 23.0602 142.445 22.3354C142.445 21.4252 142.673 20.7089 143.128 20.1864C143.6 19.6639 144.358 19.2846 145.403 19.0486C146.448 18.8127 147.889 18.6947 149.727 18.6947H150.359V18.1132C150.359 17.2704 150.173 16.6636 149.803 16.2928C149.449 15.922 148.85 15.7366 148.007 15.7366C147.35 15.7366 146.659 15.8545 145.934 16.0905C145.226 16.3096 144.527 16.6215 143.836 17.026L142.951 14.8517C143.642 14.4134 144.476 14.051 145.454 13.7645C146.431 13.4779 147.358 13.3347 148.235 13.3347ZM147.502 23.9283C148.345 23.9283 149.027 23.6501 149.55 23.0939C150.089 22.5208 150.359 21.7876 150.359 20.8943V20.3634H149.904C148.774 20.3634 147.898 20.4139 147.274 20.515C146.651 20.6162 146.204 20.7932 145.934 21.046C145.665 21.2988 145.53 21.6444 145.53 22.0826C145.53 22.622 145.715 23.0686 146.086 23.4226C146.457 23.7597 146.929 23.9283 147.502 23.9283ZM163.76 13.3347C165.243 13.3347 166.347 13.7561 167.072 14.5988C167.797 15.4416 168.159 16.7142 168.159 18.4166V26.0015H164.999V18.5935C164.999 17.6328 164.813 16.9333 164.442 16.495C164.088 16.0568 163.524 15.8377 162.748 15.8377C161.838 15.8377 161.105 16.1242 160.549 16.6973C160.009 17.2704 159.74 18.0373 159.74 18.9981V26.0015H156.579V13.6381H159.664V15.4837C160.085 14.7927 160.65 14.2617 161.358 13.8909C162.066 13.5201 162.866 13.3347 163.76 13.3347ZM177.007 26.2037C175.743 26.2037 174.63 25.9425 173.67 25.42C172.726 24.8974 171.993 24.1474 171.47 23.1698C170.948 22.1922 170.686 21.0544 170.686 19.7566C170.686 18.4587 170.948 17.3294 171.47 16.3686C171.993 15.391 172.726 14.641 173.67 14.1184C174.63 13.5959 175.743 13.3347 177.007 13.3347C178.271 13.3347 179.375 13.5959 180.319 14.1184C181.28 14.641 182.013 15.391 182.519 16.3686C183.041 17.3294 183.303 18.4587 183.303 19.7566C183.303 21.0544 183.041 22.1922 182.519 23.1698C182.013 24.1474 181.28 24.8974 180.319 25.42C179.375 25.9425 178.271 26.2037 177.007 26.2037ZM176.982 23.7513C178.01 23.7513 178.794 23.4142 179.333 22.74C179.872 22.0657 180.142 21.0713 180.142 19.7566C180.142 18.4587 179.872 17.4727 179.333 16.7984C178.794 16.1074 178.018 15.7618 177.007 15.7618C175.996 15.7618 175.212 16.1074 174.656 16.7984C174.116 17.4727 173.847 18.4587 173.847 19.7566C173.847 21.0713 174.116 22.0657 174.656 22.74C175.195 23.4142 175.97 23.7513 176.982 23.7513ZM105.906 41.1769H108.965V59.0015H106.512L96.9555 46.5622V59.0015H93.9215V41.1769H96.3487L105.906 53.5909V41.1769ZM112.81 59.0015V41.1769H124.49V43.7811H116.021V48.6354H123.985V51.2396H116.021V59.0015H112.81ZM131.623 59.0015V43.8569H125.808V41.1769H140.7V43.8569H134.885V59.0015H131.623Z" fill="#40434A"/>
<circle cx="33.5" cy="33.5015" r="33.5" fill="#EF8D47"/>
<path d="M43.1 24.3765L35.05 34.0265L34.425 42.0015H30.525L31.15 34.0265L24.625 24.3765H28.975L33.3 30.8765L38.625 24.3765H43.1Z" fill="white"/>
</svg>
