<svg width="40" height="40" viewBox="0 0 40 40" fill="none" xmlns="http://www.w3.org/2000/svg">
<rect x="0.714286" y="0.714286" width="38.5714" height="38.5714" fill="#050402"/>
<rect x="0.714286" y="0.714286" width="38.5714" height="38.5714" stroke="#BB8C5F" stroke-width="1.42857"/>
<path d="M16.6738 24.0688L16.3335 29.1669C16.8335 29.1669 17.0544 28.9382 17.3335 28.6669L19.7358 26.331L24.7335 30.0234C25.6533 30.5309 26.3171 30.2681 26.5462 29.1695L29.827 13.709C30.1629 12.3623 29.3137 11.7515 28.4338 12.1509L9.16879 19.5794C7.85378 20.1069 7.86144 20.8405 8.92909 21.1674L13.8729 22.7105L25.3184 15.4897C25.8587 15.162 26.3546 15.3382 25.9476 15.6994L16.6735 24.0686L16.6738 24.0688Z" fill="#BB8C5F"/>
</svg>
