<svg width="192" height="63" viewBox="0 0 192 63" fill="none" xmlns="http://www.w3.org/2000/svg">
<path d="M36.428 52.1C36.428 51.2787 36.6007 50.5507 36.946 49.916C37.3007 49.272 37.7813 48.768 38.388 48.404C39.004 48.0307 39.704 47.844 40.488 47.844C41.272 47.844 41.9673 48.0307 42.574 48.404C43.19 48.768 43.6707 49.272 44.016 49.916C44.3613 50.5507 44.534 51.2787 44.534 52.1C44.534 52.912 44.3613 53.64 44.016 54.284C43.6707 54.928 43.19 55.4367 42.574 55.81C41.9673 56.174 41.272 56.356 40.488 56.356C39.704 56.356 39.004 56.174 38.388 55.81C37.7813 55.4367 37.3007 54.928 36.946 54.284C36.6007 53.64 36.428 52.912 36.428 52.1ZM35.616 52.1C35.616 52.8187 35.7373 53.486 35.98 54.102C36.2227 54.7087 36.5633 55.2407 37.002 55.698C37.4407 56.146 37.954 56.496 38.542 56.748C39.1393 57 39.788 57.126 40.488 57.126C41.188 57.126 41.832 57 42.42 56.748C43.0173 56.496 43.5353 56.146 43.974 55.698C44.4127 55.2407 44.7533 54.7087 44.996 54.102C45.2387 53.486 45.36 52.8187 45.36 52.1C45.36 51.3813 45.2387 50.7187 44.996 50.112C44.7533 49.496 44.4127 48.964 43.974 48.516C43.5353 48.0587 43.0173 47.704 42.42 47.452C41.832 47.2 41.188 47.074 40.488 47.074C39.788 47.074 39.1393 47.2 38.542 47.452C37.954 47.704 37.4407 48.0587 37.002 48.516C36.5633 48.964 36.2227 49.496 35.98 50.112C35.7373 50.7187 35.616 51.3813 35.616 52.1ZM58.1025 47.2V55.404L50.6545 46.822V57H51.4245V48.824L58.8725 57.378V47.2H58.1025ZM64.7229 47.2V57H69.5389V56.272H65.4929V47.2H64.7229ZM74.3882 47.2V57H75.1582V47.2H74.3882ZM88.4267 47.2V55.404L80.9787 46.822V57H81.7487V48.824L89.1967 57.378V47.2H88.4267ZM95.4531 57H100.311V56.272H95.4531V57ZM95.4531 47.928H100.311V47.2H95.4531V47.928ZM95.4531 51.988H100.031V51.26H95.4531V51.988ZM95.0471 47.2V57H95.8171V47.2H95.0471ZM113.793 54.172L113.163 54.564C113.322 55.0213 113.546 55.446 113.835 55.838C114.124 56.23 114.484 56.5427 114.913 56.776C115.342 57.0093 115.842 57.126 116.411 57.126C116.812 57.126 117.186 57.0653 117.531 56.944C117.876 56.8133 118.175 56.6313 118.427 56.398C118.688 56.1553 118.889 55.8707 119.029 55.544C119.178 55.2173 119.253 54.8533 119.253 54.452C119.253 54.0227 119.178 53.654 119.029 53.346C118.88 53.0287 118.684 52.758 118.441 52.534C118.208 52.31 117.946 52.1233 117.657 51.974C117.368 51.8247 117.088 51.6987 116.817 51.596C116.294 51.4093 115.856 51.2133 115.501 51.008C115.146 50.7933 114.88 50.5553 114.703 50.294C114.526 50.0327 114.437 49.72 114.437 49.356C114.437 48.9173 114.591 48.5533 114.899 48.264C115.207 47.9653 115.646 47.816 116.215 47.816C116.644 47.816 117.004 47.9 117.293 48.068C117.582 48.2267 117.82 48.4273 118.007 48.67C118.203 48.9127 118.352 49.16 118.455 49.412L119.127 49.034C118.996 48.7167 118.805 48.4087 118.553 48.11C118.301 47.8113 117.984 47.564 117.601 47.368C117.228 47.172 116.78 47.074 116.257 47.074C115.753 47.074 115.3 47.1767 114.899 47.382C114.498 47.578 114.185 47.858 113.961 48.222C113.737 48.5767 113.625 48.9873 113.625 49.454C113.625 49.874 113.704 50.2333 113.863 50.532C114.031 50.8307 114.246 51.0873 114.507 51.302C114.768 51.5073 115.048 51.6847 115.347 51.834C115.655 51.974 115.949 52.0953 116.229 52.198C116.602 52.338 116.957 52.5013 117.293 52.688C117.638 52.8653 117.918 53.0987 118.133 53.388C118.348 53.6773 118.455 54.06 118.455 54.536C118.455 55.0773 118.273 55.5253 117.909 55.88C117.554 56.2253 117.06 56.398 116.425 56.398C115.958 56.398 115.557 56.3 115.221 56.104C114.885 55.8987 114.6 55.628 114.367 55.292C114.143 54.956 113.952 54.5827 113.793 54.172ZM124.971 52.03H131.579V51.302H124.971V52.03ZM131.061 47.2V57H131.845V47.2H131.061ZM124.565 47.2V57H125.335V47.2H124.565ZM137.955 52.1C137.955 51.2787 138.128 50.5507 138.473 49.916C138.828 49.272 139.309 48.768 139.915 48.404C140.531 48.0307 141.231 47.844 142.015 47.844C142.799 47.844 143.495 48.0307 144.101 48.404C144.717 48.768 145.198 49.272 145.543 49.916C145.889 50.5507 146.061 51.2787 146.061 52.1C146.061 52.912 145.889 53.64 145.543 54.284C145.198 54.928 144.717 55.4367 144.101 55.81C143.495 56.174 142.799 56.356 142.015 56.356C141.231 56.356 140.531 56.174 139.915 55.81C139.309 55.4367 138.828 54.928 138.473 54.284C138.128 53.64 137.955 52.912 137.955 52.1ZM137.143 52.1C137.143 52.8187 137.265 53.486 137.507 54.102C137.75 54.7087 138.091 55.2407 138.529 55.698C138.968 56.146 139.481 56.496 140.069 56.748C140.667 57 141.315 57.126 142.015 57.126C142.715 57.126 143.359 57 143.947 56.748C144.545 56.496 145.063 56.146 145.501 55.698C145.94 55.2407 146.281 54.7087 146.523 54.102C146.766 53.486 146.887 52.8187 146.887 52.1C146.887 51.3813 146.766 50.7187 146.523 50.112C146.281 49.496 145.94 48.964 145.501 48.516C145.063 48.0587 144.545 47.704 143.947 47.452C143.359 47.2 142.715 47.074 142.015 47.074C141.315 47.074 140.667 47.2 140.069 47.452C139.481 47.704 138.968 48.0587 138.529 48.516C138.091 48.964 137.75 49.496 137.507 50.112C137.265 50.7187 137.143 51.3813 137.143 52.1ZM152.182 47.2V57H152.952V47.2H152.182ZM152.616 47.928H154.478C155.197 47.928 155.78 48.1147 156.228 48.488C156.676 48.852 156.9 49.3887 156.9 50.098C156.9 50.798 156.676 51.3347 156.228 51.708C155.78 52.0813 155.197 52.268 154.478 52.268H152.616V52.996H154.478C155.094 52.996 155.64 52.884 156.116 52.66C156.601 52.4267 156.984 52.0907 157.264 51.652C157.544 51.2133 157.684 50.6953 157.684 50.098C157.684 49.4913 157.544 48.9733 157.264 48.544C156.984 48.1147 156.601 47.7833 156.116 47.55C155.64 47.3167 155.094 47.2 154.478 47.2H152.616V47.928Z" fill="#BB8C5F"/>
<path d="M0.113249 38L3 40.8868L5.88675 38L3 35.1133L0.113249 38ZM191.887 38L189 35.1132L186.113 38L189 40.8868L191.887 38ZM3 38.5L189 38.5L189 37.5L3 37.5L3 38.5Z" fill="#BB8C5F"/>
<path d="M24.43 28.7H24.58V29H20.35V28.7H20.5C20.64 28.7 20.77 28.64 20.89 28.52C21.01 28.4 21.11 28.26 21.19 28.1C21.29 27.94 21.36 27.77 21.4 27.59C21.44 27.39 21.46 27.21 21.46 27.05V11.06C21.46 10.92 21.44 10.76 21.4 10.58C21.36 10.4 21.29 10.23 21.19 10.07C21.11 9.91 21.01 9.78 20.89 9.68C20.77 9.56 20.64 9.5 20.5 9.5H20.35V9.2H25.57C27.57 9.2 29.11 9.59 30.19 10.37C31.29 11.15 31.84 12.3 31.84 13.82C31.84 14.58 31.71 15.25 31.45 15.83C31.21 16.39 30.88 16.88 30.46 17.3C30.04 17.7 29.54 18.03 28.96 18.29C28.4 18.53 27.8 18.71 27.16 18.83L29.32 22.13C29.84 22.93 30.37 23.72 30.91 24.5C31.45 25.26 31.98 26.05 32.5 26.87C32.64 27.07 32.79 27.28 32.95 27.5C33.13 27.72 33.31 27.92 33.49 28.1C33.69 28.28 33.89 28.43 34.09 28.55C34.31 28.65 34.53 28.7 34.75 28.7V29H33.46C32.66 29 32 28.81 31.48 28.43C30.98 28.03 30.56 27.57 30.22 27.05C29.32 25.73 28.42 24.39 27.52 23.03C26.64 21.67 25.76 20.33 24.88 19.01C24.66 18.99 24.42 18.97 24.16 18.95C23.92 18.91 23.69 18.87 23.47 18.83V27.05C23.47 27.21 23.49 27.39 23.53 27.59C23.57 27.77 23.63 27.94 23.71 28.1C23.81 28.26 23.91 28.4 24.01 28.52C24.13 28.64 24.27 28.7 24.43 28.7ZM23.47 10.22V17.84H23.62C23.78 17.86 24.03 17.88 24.37 17.9C24.73 17.9 25.17 17.9 25.69 17.9C26.11 17.9 26.55 17.84 27.01 17.72C27.49 17.58 27.93 17.36 28.33 17.06C28.75 16.74 29.09 16.33 29.35 15.83C29.63 15.33 29.77 14.7 29.77 13.94C29.77 13.18 29.62 12.56 29.32 12.08C29.04 11.6 28.64 11.22 28.12 10.94C27.62 10.66 27.01 10.47 26.29 10.37C25.57 10.27 24.78 10.22 23.92 10.22H23.47ZM46.6612 8.9C48.2212 8.9 49.6212 9.18 50.8612 9.74C52.1012 10.28 53.1512 11.02 54.0112 11.96C54.8912 12.88 55.5612 13.96 56.0212 15.2C56.5012 16.42 56.7412 17.7 56.7412 19.04C56.7412 20.54 56.4612 21.92 55.9012 23.18C55.3612 24.44 54.6112 25.52 53.6512 26.42C52.6912 27.32 51.5712 28.03 50.2912 28.55C49.0312 29.05 47.6812 29.3 46.2412 29.3C44.7012 29.3 43.3112 29.02 42.0712 28.46C40.8512 27.9 39.8112 27.16 38.9512 26.24C38.1112 25.32 37.4612 24.26 37.0012 23.06C36.5412 21.86 36.3112 20.61 36.3112 19.31C36.3112 18.03 36.5412 16.77 37.0012 15.53C37.4612 14.27 38.1312 13.15 39.0112 12.17C39.9112 11.19 41.0012 10.4 42.2812 9.8C43.5612 9.2 45.0212 8.9 46.6612 8.9ZM46.6312 28.25C47.9712 28.19 49.1412 27.89 50.1412 27.35C51.1612 26.79 52.0112 26.09 52.6912 25.25C53.3712 24.39 53.8712 23.45 54.1912 22.43C54.5312 21.41 54.7012 20.4 54.7012 19.4C54.7012 18.3 54.5012 17.19 54.1012 16.07C53.7012 14.95 53.1312 13.94 52.3912 13.04C51.6512 12.12 50.7612 11.38 49.7212 10.82C48.7012 10.24 47.5512 9.95 46.2712 9.95C45.0312 9.95 43.9212 10.23 42.9412 10.79C41.9612 11.33 41.1212 12.03 40.4212 12.89C39.7412 13.75 39.2212 14.71 38.8612 15.77C38.5012 16.83 38.3212 17.87 38.3212 18.89C38.3212 19.99 38.5312 21.1 38.9512 22.22C39.3712 23.32 39.9512 24.32 40.6912 25.22C41.4312 26.12 42.3012 26.85 43.3012 27.41C44.3212 27.97 45.4312 28.25 46.6312 28.25ZM69.4834 8.9C71.0434 8.9 72.4434 9.18 73.6834 9.74C74.9234 10.28 75.9734 11.02 76.8334 11.96C77.7134 12.88 78.3834 13.96 78.8434 15.2C79.3234 16.42 79.5634 17.7 79.5634 19.04C79.5634 20.54 79.2834 21.92 78.7234 23.18C78.1834 24.44 77.4334 25.52 76.4734 26.42C75.5134 27.32 74.3934 28.03 73.1134 28.55C71.8534 29.05 70.5034 29.3 69.0634 29.3C67.5234 29.3 66.1334 29.02 64.8934 28.46C63.6734 27.9 62.6334 27.16 61.7734 26.24C60.9334 25.32 60.2834 24.26 59.8234 23.06C59.3634 21.86 59.1334 20.61 59.1334 19.31C59.1334 18.03 59.3634 16.77 59.8234 15.53C60.2834 14.27 60.9534 13.15 61.8334 12.17C62.7334 11.19 63.8234 10.4 65.1034 9.8C66.3834 9.2 67.8434 8.9 69.4834 8.9ZM69.4534 28.25C70.7934 28.19 71.9634 27.89 72.9634 27.35C73.9834 26.79 74.8334 26.09 75.5134 25.25C76.1934 24.39 76.6934 23.45 77.0134 22.43C77.3534 21.41 77.5234 20.4 77.5234 19.4C77.5234 18.3 77.3234 17.19 76.9234 16.07C76.5234 14.95 75.9534 13.94 75.2134 13.04C74.4734 12.12 73.5834 11.38 72.5434 10.82C71.5234 10.24 70.3734 9.95 69.0934 9.95C67.8534 9.95 66.7434 10.23 65.7634 10.79C64.7834 11.33 63.9434 12.03 63.2434 12.89C62.5634 13.75 62.0434 14.71 61.6834 15.77C61.3234 16.83 61.1434 17.87 61.1434 18.89C61.1434 19.99 61.3534 21.1 61.7734 22.22C62.1934 23.32 62.7734 24.32 63.5134 25.22C64.2534 26.12 65.1234 26.85 66.1234 27.41C67.1434 27.97 68.2534 28.25 69.4534 28.25ZM98.3357 28.7H98.4857C98.6257 28.7 98.7557 28.64 98.8757 28.52C98.9957 28.4 99.0957 28.26 99.1757 28.1C99.2757 27.94 99.3457 27.77 99.3857 27.59C99.4257 27.39 99.4457 27.21 99.4457 27.05V11.27L91.7057 29.33L84.3557 12.2V27.05C84.3557 27.21 84.3757 27.39 84.4157 27.59C84.4557 27.77 84.5157 27.94 84.5957 28.1C84.6957 28.26 84.8057 28.4 84.9257 28.52C85.0457 28.64 85.1857 28.7 85.3457 28.7H85.4957V29H82.2257V28.7H82.3757C82.5157 28.7 82.6457 28.64 82.7657 28.52C82.8857 28.4 82.9857 28.26 83.0657 28.1C83.1457 27.94 83.2057 27.77 83.2457 27.59C83.2857 27.39 83.3057 27.21 83.3057 27.05V11.06C83.3057 10.92 83.2857 10.76 83.2457 10.58C83.2057 10.4 83.1457 10.23 83.0657 10.07C82.9857 9.91 82.8857 9.78 82.7657 9.68C82.6457 9.56 82.5157 9.5 82.3757 9.5H82.2257V9.2H85.2857L92.2457 25.61L99.2057 9.2H102.596V9.5H102.446C102.286 9.5 102.146 9.56 102.026 9.68C101.906 9.78 101.796 9.91 101.696 10.07C101.616 10.23 101.556 10.4 101.516 10.58C101.476 10.76 101.456 10.92 101.456 11.06V27.05C101.456 27.21 101.476 27.39 101.516 27.59C101.556 27.77 101.616 27.94 101.696 28.1C101.796 28.26 101.906 28.4 102.026 28.52C102.146 28.64 102.286 28.7 102.446 28.7H102.596V29H98.3357V28.7ZM109.656 28.7H109.806V29H105.516V28.7H105.666C105.826 28.7 105.966 28.64 106.086 28.52C106.206 28.4 106.306 28.26 106.386 28.1C106.486 27.94 106.556 27.77 106.596 27.59C106.636 27.39 106.656 27.21 106.656 27.05V11.06C106.656 10.92 106.636 10.76 106.596 10.58C106.556 10.4 106.486 10.23 106.386 10.07C106.306 9.91 106.206 9.78 106.086 9.68C105.966 9.56 105.836 9.5 105.696 9.5H105.546V9.2H109.836V9.5H109.686C109.526 9.5 109.386 9.56 109.266 9.68C109.146 9.78 109.036 9.91 108.936 10.07C108.856 10.23 108.786 10.4 108.726 10.58C108.686 10.76 108.666 10.92 108.666 11.06V18.02L116.286 10.46C116.406 10.32 116.466 10.16 116.466 9.98C116.466 9.66 116.346 9.5 116.106 9.5H115.956V9.2H119.616V9.5H119.466C119.186 9.5 118.896 9.6 118.596 9.8C118.296 10 117.996 10.25 117.696 10.55L111.396 16.82L118.026 26.87C118.046 26.91 118.136 27.03 118.296 27.23C118.456 27.43 118.646 27.64 118.866 27.86C119.106 28.08 119.366 28.28 119.646 28.46C119.946 28.62 120.246 28.7 120.546 28.7V29H119.826C119.226 29 118.716 28.97 118.296 28.91C117.896 28.83 117.546 28.71 117.246 28.55C116.946 28.39 116.676 28.19 116.436 27.95C116.216 27.71 115.986 27.41 115.746 27.05L109.926 18.26L108.666 19.55V27.05C108.666 27.21 108.686 27.38 108.726 27.56C108.786 27.74 108.856 27.92 108.936 28.1C109.016 28.26 109.116 28.4 109.236 28.52C109.356 28.64 109.496 28.7 109.656 28.7ZM130.655 8.9C132.215 8.9 133.615 9.18 134.855 9.74C136.095 10.28 137.145 11.02 138.005 11.96C138.885 12.88 139.555 13.96 140.015 15.2C140.495 16.42 140.735 17.7 140.735 19.04C140.735 20.54 140.455 21.92 139.895 23.18C139.355 24.44 138.605 25.52 137.645 26.42C136.685 27.32 135.565 28.03 134.285 28.55C133.025 29.05 131.675 29.3 130.235 29.3C128.695 29.3 127.305 29.02 126.065 28.46C124.845 27.9 123.805 27.16 122.945 26.24C122.105 25.32 121.455 24.26 120.995 23.06C120.535 21.86 120.305 20.61 120.305 19.31C120.305 18.03 120.535 16.77 120.995 15.53C121.455 14.27 122.125 13.15 123.005 12.17C123.905 11.19 124.995 10.4 126.275 9.8C127.555 9.2 129.015 8.9 130.655 8.9ZM130.625 28.25C131.965 28.19 133.135 27.89 134.135 27.35C135.155 26.79 136.005 26.09 136.685 25.25C137.365 24.39 137.865 23.45 138.185 22.43C138.525 21.41 138.695 20.4 138.695 19.4C138.695 18.3 138.495 17.19 138.095 16.07C137.695 14.95 137.125 13.94 136.385 13.04C135.645 12.12 134.755 11.38 133.715 10.82C132.695 10.24 131.545 9.95 130.265 9.95C129.025 9.95 127.915 10.23 126.935 10.79C125.955 11.33 125.115 12.03 124.415 12.89C123.735 13.75 123.215 14.71 122.855 15.77C122.495 16.83 122.315 17.87 122.315 18.89C122.315 19.99 122.525 21.1 122.945 22.22C123.365 23.32 123.945 24.32 124.685 25.22C125.425 26.12 126.295 26.85 127.295 27.41C128.315 27.97 129.425 28.25 130.625 28.25ZM147.448 28.7H147.598V29H143.368V28.7H143.518C143.658 28.7 143.788 28.64 143.908 28.52C144.028 28.4 144.128 28.26 144.208 28.1C144.308 27.94 144.378 27.77 144.418 27.59C144.458 27.39 144.478 27.21 144.478 27.05V11.06C144.478 10.92 144.458 10.76 144.418 10.58C144.378 10.4 144.308 10.23 144.208 10.07C144.128 9.91 144.028 9.78 143.908 9.68C143.788 9.56 143.658 9.5 143.518 9.5H143.368V9.2H148.588C150.588 9.2 152.128 9.59 153.208 10.37C154.308 11.15 154.858 12.3 154.858 13.82C154.858 14.58 154.728 15.25 154.468 15.83C154.228 16.39 153.898 16.88 153.478 17.3C153.058 17.7 152.558 18.03 151.978 18.29C151.418 18.53 150.818 18.71 150.178 18.83L152.338 22.13C152.858 22.93 153.388 23.72 153.928 24.5C154.468 25.26 154.998 26.05 155.518 26.87C155.658 27.07 155.808 27.28 155.968 27.5C156.148 27.72 156.328 27.92 156.508 28.1C156.708 28.28 156.908 28.43 157.108 28.55C157.328 28.65 157.548 28.7 157.768 28.7V29H156.478C155.678 29 155.018 28.81 154.498 28.43C153.998 28.03 153.578 27.57 153.238 27.05C152.338 25.73 151.438 24.39 150.538 23.03C149.658 21.67 148.778 20.33 147.898 19.01C147.678 18.99 147.438 18.97 147.178 18.95C146.938 18.91 146.708 18.87 146.488 18.83V27.05C146.488 27.21 146.508 27.39 146.548 27.59C146.588 27.77 146.648 27.94 146.728 28.1C146.828 28.26 146.928 28.4 147.028 28.52C147.148 28.64 147.288 28.7 147.448 28.7ZM146.488 10.22V17.84H146.638C146.798 17.86 147.048 17.88 147.388 17.9C147.748 17.9 148.188 17.9 148.708 17.9C149.128 17.9 149.568 17.84 150.028 17.72C150.508 17.58 150.948 17.36 151.348 17.06C151.768 16.74 152.108 16.33 152.368 15.83C152.648 15.33 152.788 14.7 152.788 13.94C152.788 13.18 152.638 12.56 152.338 12.08C152.058 11.6 151.658 11.22 151.138 10.94C150.638 10.66 150.028 10.47 149.308 10.37C148.588 10.27 147.798 10.22 146.938 10.22H146.488ZM167.159 28.7H167.309V29H163.049V28.7H163.199C163.359 28.7 163.499 28.64 163.619 28.52C163.739 28.4 163.839 28.26 163.919 28.1C164.019 27.94 164.089 27.77 164.129 27.59C164.169 27.39 164.189 27.21 164.189 27.05V10.31H160.709C160.389 10.31 160.109 10.38 159.869 10.52C159.629 10.66 159.429 10.84 159.269 11.06C159.109 11.26 158.989 11.49 158.909 11.75C158.829 11.99 158.789 12.23 158.789 12.47H158.489V9.2H171.959V12.47H171.659C171.659 12.23 171.619 11.99 171.539 11.75C171.459 11.49 171.339 11.26 171.179 11.06C171.019 10.84 170.819 10.66 170.579 10.52C170.339 10.38 170.059 10.31 169.739 10.31H166.199V27.05C166.199 27.21 166.219 27.39 166.259 27.59C166.299 27.77 166.359 27.94 166.439 28.1C166.539 28.26 166.639 28.4 166.739 28.52C166.859 28.64 166.999 28.7 167.159 28.7Z" fill="#BB8C5F"/>
</svg>
